<?xml version="1.0" encoding="UTF-8"?>
<svg xmlns="http://www.w3.org/2000/svg" xmlns:xlink="http://www.w3.org/1999/xlink" viewBox="0 0 1920 1080">
  <defs>
    <style>
      .cls-1 {
        fill: #5b7f47;
      }

      .cls-2 {
        fill: #f7aba1;
      }

      .cls-3 {
        fill: url(#linear-gradient);
      }

      .cls-4 {
        fill: #73944d;
      }

      .cls-5 {
        opacity: .15;
      }

      .cls-6 {
        fill: #528494;
      }

      .cls-7 {
        fill: #71acc2;
      }

      .cls-8 {
        fill: #fcf9ce;
      }

      .cls-9 {
        fill: #864e2e;
      }

      .cls-10 {
        fill: #ebefef;
      }
    </style>
    <linearGradient id="linear-gradient" x1="960" y1="-106.34" x2="960" y2="973.66" gradientUnits="userSpaceOnUse">
      <stop offset="0" stop-color="#86b5df"/>
      <stop offset=".5" stop-color="#bed5ed"/>
      <stop offset="1" stop-color="#dfe9f5"/>
    </linearGradient>
  </defs>
  <g id="Sky">
    <rect class="cls-3" width="1920" height="1080"/>
  </g>
  <g id="Mountain">
    <g>
      <polyline class="cls-7" points="-64.83 1121.94 6.94 1007.53 740.73 594.24 1437.9 1115.03"/>
      <polyline class="cls-10" points="968.91 764.69 740.73 594.24 6.94 1007.53 -26.86 1061.42 671.3 820.42 856.08 961.64 969.94 898.54 842.68 777.94"/>
      <polygon class="cls-6" points="1437.9 1115.03 724 1150.7 444.86 1126.63 671.3 820.42 842.68 777.94 1437.9 1115.03"/>
      <polygon class="cls-2" points="740.73 594.24 671.3 820.42 969.94 898.54 842.68 777.94 1437.9 1115.03 968.91 764.69 740.73 594.24"/>
    </g>
    <polygon class="cls-7" points="577.65 1137.91 1934.9 263.86 1934.9 1292.01 577.65 1137.91"/>
    <polygon class="cls-10" points="1934.9 263.86 921.09 916.75 1433.62 674.08 969.94 1121.94 1084.24 1113.24 1674.8 805.98 1934.9 263.86"/>
    <polygon class="cls-6" points="1674.8 805.98 1285.38 1159.22 2131.45 1150.7 2058.38 727.85 1674.8 805.98"/>
    <polygon class="cls-2" points="1934.9 263.86 2016.54 1000.38 1674.8 805.98 1934.9 263.86"/>
    <g>
      <g>
        <path class="cls-1" d="M1475.79,555.1c-4.34,4.98-4.53,11.25-7.2,16.6l7.2-1.35c-2.89,3.51-9.17,2.97-9.25,7.79,2.75-.85,3.39-2.46,4.63-4.06l-1.03,6.1,17.99.68c.97-7.67,2.28-15.31,2.06-23.03-.45-.6.75-2.75-2.57-2.71l-7.2,4.06-4.63-4.06Z"/>
        <path class="cls-1" d="M1493.27,569.33c.47,3.33,0,8,0,11.52l15.42.68c.65-.06,1.51.1,2.06,0,2.68-2.38-7.2-4.06-7.2-5.08,0-.65,3.07-1.13,3.08-1.35.05-.57-10.56-6.32-13.37-5.76Z"/>
        <path class="cls-9" d="M1488.13,580.84c-.29,2.25-.86,4.32-2.06,6.44,12.72,1.81,7.2-1.86,7.2-6.44,0-3.52.47-8.19,0-11.52-.28-1.99-.6-4.13-1.03-6.1-.75-3.41.19-2.41-2.06-5.42.22,7.73-1.08,15.36-2.06,23.03Z"/>
        <path class="cls-4" d="M1497.38,540.87c.24,1.13,4.17,8.33,2.57,8.81-3.08-2.02-5.81-3.37-7.71-6.1-3.78,7.66-.04,11.14,8.23,15.92l-6.68-3.05-1.54,6.77c.43,1.97.75,4.11,1.03,6.1,2.81-.56,13.42,5.19,13.37,5.76-.02.22-3.08.7-3.08,1.35,0,1.02,9.88,2.7,7.2,5.08,1.07-.19,1.91-.09,3.08-.68-.92-1.47-.98-4.91-2.06-6.44-1.55-2.21-13.2-10.85-4.11-9.48,1.23-4.58-4.23-6.5-6.17-10.16,8.07,4.17.59-13.27-4.11-13.89Z"/>
        <path class="cls-1" d="M1475.79,555.1l4.63,4.06,7.2-4.06c3.32-.04,2.12,2.11,2.57,2.71,2.25,3.01,1.31,2.01,2.06,5.42l1.54-6.77,6.68,3.05c-8.26-4.78-12-8.26-8.23-15.92-3.89-5.58-5.78-12.85-1.03-18.29-.49-.7,1.24-3.55-2.06-2.37,1.16,5.74-13.51,22.2-12.34,26.42.73,2.63,6.62-2,8.23-.68-2.72,2.2-7.1,3.96-9.25,6.44Z"/>
        <path class="cls-4" d="M1492.24,543.58c1.9,2.72,4.63,4.08,7.71,6.1,1.6-.48-2.33-7.68-2.57-8.81-.37-1.74-1.67-1.67-2.06-3.05-.05-.18,3.14-1.86,3.08-2.03-.97-2.86-5.21-7.66-7.2-10.5-4.75,5.44-2.86,12.72,1.03,18.29Z"/>
      </g>
      <g>
        <path class="cls-1" d="M1570.96,522.54c4.34,4.98,4.53,11.25,7.2,16.6l-7.2-1.35c2.89,3.51,9.17,2.97,9.25,7.79-2.75-.85-3.39-2.46-4.63-4.06l1.03,6.1-17.99.68c-.97-7.67-2.28-15.31-2.06-23.03.45-.6-.75-2.75,2.57-2.71l7.2,4.06,4.63-4.06Z"/>
        <path class="cls-1" d="M1553.48,536.77c-.47,3.33,0,8,0,11.52l-15.42.68c-.65-.06-1.51.1-2.06,0-2.68-2.38,7.2-4.06,7.2-5.08,0-.65-3.07-1.13-3.08-1.35-.05-.57,10.56-6.32,13.37-5.76Z"/>
        <path class="cls-9" d="M1558.62,548.29c.29,2.25.86,4.32,2.06,6.44-12.72,1.81-7.2-1.86-7.2-6.44,0-3.52-.47-8.19,0-11.52.28-1.99.6-4.13,1.03-6.1.75-3.41-.19-2.41,2.06-5.42-.22,7.73,1.08,15.36,2.06,23.03Z"/>
        <path class="cls-4" d="M1549.37,508.32c-.24,1.13-4.17,8.33-2.57,8.81,3.08-2.02,5.81-3.37,7.71-6.1,3.78,7.66.04,11.14-8.23,15.92l6.68-3.05,1.54,6.77c-.43,1.97-.75,4.11-1.03,6.1-2.81-.56-13.42,5.19-13.37,5.76.02.22,3.08.7,3.08,1.35,0,1.02-9.88,2.7-7.2,5.08-1.07-.19-1.91-.09-3.08-.68.92-1.47.98-4.91,2.06-6.44,1.55-2.21,13.2-10.85,4.11-9.48-1.23-4.58,4.23-6.5,6.17-10.16-8.07,4.17-.59-13.27,4.11-13.89Z"/>
        <path class="cls-1" d="M1570.96,522.54l-4.63,4.06-7.2-4.06c-3.32-.04-2.12,2.11-2.57,2.71-2.25,3.01-1.31,2.01-2.06,5.42l-1.54-6.77-6.68,3.05c8.26-4.78,12-8.26,8.23-15.92,3.89-5.58,5.78-12.85,1.03-18.29.49-.7-1.24-3.55,2.06-2.37-1.16,5.74,13.51,22.2,12.34,26.42-.73,2.63-6.62-2-8.23-.68,2.72,2.2,7.1,3.96,9.25,6.44Z"/>
        <path class="cls-4" d="M1554.51,511.03c-1.9,2.72-4.63,4.08-7.71,6.1-1.6-.48,2.33-7.68,2.57-8.81.37-1.74,1.67-1.67,2.06-3.05.05-.18-3.14-1.86-3.08-2.03.97-2.86,5.21-7.66,7.2-10.5,4.75,5.44,2.86,12.72-1.03,18.29Z"/>
      </g>
      <g>
        <path class="cls-1" d="M1618.26,517.03c4.34,4.98,4.53,11.25,7.2,16.6l-7.2-1.35c2.89,3.51,9.17,2.97,9.25,7.79-2.75-.85-3.39-2.46-4.63-4.06l1.03,6.1-17.99.68c-.97-7.67-2.28-15.31-2.06-23.03.45-.6-.75-2.75,2.57-2.71l7.2,4.06,4.63-4.06Z"/>
        <path class="cls-1" d="M1600.78,531.25c-.47,3.33,0,8,0,11.52l-15.42.68c-.65-.06-1.51.1-2.06,0-2.68-2.38,7.2-4.06,7.2-5.08,0-.65-3.07-1.13-3.08-1.35-.05-.57,10.56-6.32,13.37-5.76Z"/>
        <path class="cls-9" d="M1605.93,542.77c.29,2.25.86,4.32,2.06,6.44-12.72,1.81-7.2-1.86-7.2-6.44,0-3.52-.47-8.19,0-11.52.28-1.99.6-4.13,1.03-6.1.75-3.41-.19-2.41,2.06-5.42-.22,7.73,1.08,15.36,2.06,23.03Z"/>
        <path class="cls-4" d="M1596.67,502.8c-.24,1.13-4.17,8.33-2.57,8.81,3.08-2.02,5.81-3.37,7.71-6.1,3.78,7.66.04,11.14-8.23,15.92l6.68-3.05,1.54,6.77c-.43,1.97-.75,4.11-1.03,6.1-2.81-.56-13.42,5.19-13.37,5.76.02.22,3.08.7,3.08,1.35,0,1.02-9.88,2.7-7.2,5.08-1.07-.19-1.91-.09-3.08-.68.92-1.47.98-4.91,2.06-6.44,1.55-2.21,13.2-10.85,4.11-9.48-1.23-4.58,4.23-6.5,6.17-10.16-8.07,4.17-.59-13.27,4.11-13.89Z"/>
        <path class="cls-1" d="M1618.26,517.03l-4.63,4.06-7.2-4.06c-3.32-.04-2.12,2.11-2.57,2.71-2.25,3.01-1.31,2.01-2.06,5.42l-1.54-6.77-6.68,3.05c8.26-4.78,12-8.26,8.23-15.92,3.89-5.58,5.78-12.85,1.03-18.29.49-.7-1.24-3.55,2.06-2.37-1.16,5.74,13.51,22.2,12.34,26.42-.73,2.63-6.62-2-8.23-.68,2.72,2.2,7.1,3.96,9.25,6.44Z"/>
        <path class="cls-4" d="M1601.81,505.51c-1.9,2.72-4.63,4.08-7.71,6.1-1.6-.48,2.33-7.68,2.57-8.81.37-1.74,1.67-1.67,2.06-3.05.05-.18-3.14-1.86-3.08-2.03.97-2.86,5.21-7.66,7.2-10.5,4.75,5.44,2.86,12.72-1.03,18.29Z"/>
      </g>
      <g>
        <path class="cls-1" d="M1639.53,468.09c4.07,4.78,4.24,10.79,6.75,15.92l-6.75-1.3c2.71,3.37,8.6,2.85,8.68,7.47-2.58-.82-3.18-2.36-4.34-3.9l.96,5.85-16.87.65c-.91-7.36-2.13-14.68-1.93-22.09.42-.58-.7-2.63,2.41-2.6l6.75,3.9,4.34-3.9Z"/>
        <path class="cls-1" d="M1623.15,481.74c-.44,3.19,0,7.67,0,11.05l-14.46.65c-.61-.06-1.42.09-1.93,0-2.51-2.28,6.75-3.9,6.75-4.87,0-.63-2.87-1.09-2.89-1.3-.05-.55,9.9-6.07,12.53-5.52Z"/>
        <path class="cls-9" d="M1627.97,492.79c.27,2.16.81,4.15,1.93,6.17-11.92,1.74-6.75-1.78-6.75-6.17,0-3.37-.44-7.85,0-11.05.27-1.91.56-3.96.96-5.85.7-3.27-.18-2.31,1.93-5.2-.21,7.41,1.02,14.73,1.93,22.09Z"/>
        <path class="cls-4" d="M1619.29,454.45c-.22,1.08-3.91,7.99-2.41,8.45,2.89-1.94,5.45-3.24,7.23-5.85,3.54,7.35.03,10.69-7.71,15.27l6.27-2.92,1.45,6.5c-.4,1.89-.7,3.94-.96,5.85-2.63-.54-12.58,4.98-12.53,5.52.02.21,2.89.67,2.89,1.3,0,.97-9.26,2.59-6.75,4.87-1-.18-1.79-.08-2.89-.65.87-1.41.92-4.71,1.93-6.17,1.45-2.12,12.38-10.41,3.86-9.1-1.15-4.4,3.96-6.24,5.78-9.75-7.56,4-.55-12.73,3.86-13.32Z"/>
        <path class="cls-1" d="M1639.53,468.09l-4.34,3.9-6.75-3.9c-3.11-.03-1.99,2.02-2.41,2.6-2.11,2.89-1.23,1.93-1.93,5.2l-1.45-6.5-6.27,2.92c7.75-4.58,11.25-7.93,7.71-15.27,3.65-5.35,5.42-12.33.96-17.55.46-.68-1.16-3.41,1.93-2.27-1.08,5.5,12.67,21.3,11.57,25.34-.69,2.52-6.2-1.91-7.71-.65,2.55,2.11,6.65,3.8,8.68,6.17Z"/>
        <path class="cls-4" d="M1624.11,457.05c-1.78,2.61-4.34,3.91-7.23,5.85-1.5-.46,2.19-7.37,2.41-8.45.34-1.67,1.56-1.6,1.93-2.92.05-.18-2.95-1.78-2.89-1.95.91-2.75,4.89-7.35,6.75-10.07,4.45,5.22,2.68,12.2-.96,17.55Z"/>
      </g>
      <g>
        <path class="cls-1" d="M1766.83,402.73c2.91,4.17,3.03,9.41,4.82,13.89l-4.82-1.13c1.94,2.94,6.14,2.48,6.2,6.52-1.84-.72-2.27-2.06-3.1-3.4l.69,5.1-12.05.57c-.65-6.42-1.53-12.81-1.38-19.27.3-.5-.5-2.3,1.72-2.27l4.82,3.4,3.1-3.4Z"/>
        <path class="cls-1" d="M1755.12,414.64c-.32,2.79,0,6.69,0,9.64l-10.33.57c-.44-.05-1.01.08-1.38,0-1.8-1.99,4.82-3.4,4.82-4.25,0-.55-2.05-.95-2.07-1.13-.03-.48,7.08-5.29,8.95-4.82Z"/>
        <path class="cls-9" d="M1758.56,424.27c.19,1.88.58,3.62,1.38,5.39-8.52,1.52-4.82-1.55-4.82-5.39,0-2.94-.32-6.85,0-9.64.19-1.66.4-3.45.69-5.1.5-2.85-.13-2.02,1.38-4.53-.15,6.47.73,12.85,1.38,19.27Z"/>
        <path class="cls-4" d="M1752.36,390.83c-.16.94-2.79,6.97-1.72,7.37,2.06-1.69,3.89-2.82,5.17-5.1,2.53,6.41.02,9.32-5.51,13.32l4.48-2.55,1.03,5.67c-.29,1.65-.5,3.44-.69,5.1-1.88-.47-8.99,4.34-8.95,4.82.01.18,2.07.59,2.07,1.13,0,.85-6.62,2.26-4.82,4.25-.71-.16-1.28-.07-2.07-.57.62-1.23.66-4.1,1.38-5.39,1.04-1.85,8.85-9.08,2.76-7.94-.82-3.84,2.83-5.44,4.13-8.5-5.41,3.49-.4-11.1,2.76-11.62Z"/>
        <path class="cls-1" d="M1766.83,402.73l-3.1,3.4-4.82-3.4c-2.22-.03-1.42,1.77-1.72,2.27-1.5,2.52-.88,1.68-1.38,4.53l-1.03-5.67-4.48,2.55c5.54-4,8.04-6.91,5.51-13.32,2.61-4.67,3.87-10.75.69-15.31.33-.59-.83-2.97,1.38-1.98-.78,4.8,9.05,18.58,8.27,22.11-.49,2.2-4.43-1.67-5.51-.57,1.82,1.84,4.75,3.31,6.2,5.39Z"/>
        <path class="cls-4" d="M1755.81,393.1c-1.27,2.28-3.1,3.41-5.17,5.1-1.07-.4,1.56-6.43,1.72-7.37.24-1.45,1.12-1.4,1.38-2.55.03-.15-2.11-1.55-2.07-1.7.65-2.4,3.49-6.41,4.82-8.79,3.18,4.55,1.92,10.64-.69,15.31Z"/>
      </g>
      <g>
        <path class="cls-1" d="M1706.28,459.56c4.34,3.38,4.53,7.63,7.2,11.26l-7.2-.92c2.89,2.38,9.17,2.01,9.25,5.28-2.75-.58-3.39-1.67-4.63-2.76l1.03,4.14-17.99.46c-.97-5.21-2.28-10.38-2.06-15.62.45-.41-.75-1.86,2.57-1.84l7.2,2.76,4.63-2.76Z"/>
        <path class="cls-1" d="M1688.8,469.21c-.47,2.26,0,5.43,0,7.81l-15.42.46c-.65-.04-1.51.07-2.06,0-2.68-1.62,7.2-2.76,7.2-3.45,0-.44-3.07-.77-3.08-.92-.05-.39,10.56-4.29,13.37-3.91Z"/>
        <path class="cls-9" d="M1693.94,477.02c.29,1.53.86,2.93,2.06,4.37-12.72,1.23-7.2-1.26-7.2-4.37,0-2.38-.47-5.55,0-7.81.28-1.35.6-2.8,1.03-4.14.75-2.31-.19-1.64,2.06-3.68-.22,5.24,1.08,10.42,2.06,15.62Z"/>
        <path class="cls-4" d="M1684.69,449.91c-.24.76-4.17,5.65-2.57,5.97,3.08-1.37,5.81-2.29,7.71-4.14,3.78,5.19.04,7.56-8.23,10.8l6.68-2.07,1.54,4.6c-.43,1.34-.75,2.79-1.03,4.14-2.81-.38-13.42,3.52-13.37,3.91.02.15,3.08.48,3.08.92,0,.69-9.88,1.83-7.2,3.45-1.07-.13-1.91-.06-3.08-.46.92-1,.98-3.33,2.06-4.37,1.55-1.5,13.2-7.36,4.11-6.43-1.23-3.11,4.23-4.41,6.17-6.89-8.07,2.83-.59-9,4.11-9.42Z"/>
        <path class="cls-1" d="M1706.28,459.56l-4.63,2.76-7.2-2.76c-3.32-.02-2.12,1.43-2.57,1.84-2.25,2.04-1.31,1.36-2.06,3.68l-1.54-4.6-6.68,2.07c8.26-3.24,12-5.6,8.23-10.8,3.89-3.78,5.78-8.72,1.03-12.41.49-.48-1.24-2.41,2.06-1.61-1.16,3.89,13.51,15.06,12.34,17.92-.73,1.79-6.62-1.35-8.23-.46,2.72,1.5,7.1,2.69,9.25,4.37Z"/>
        <path class="cls-4" d="M1689.83,451.74c-1.9,1.85-4.63,2.77-7.71,4.14-1.6-.32,2.33-5.21,2.57-5.97.37-1.18,1.67-1.13,2.06-2.07.05-.12-3.14-1.26-3.08-1.38.97-1.94,5.21-5.2,7.2-7.12,4.75,3.69,2.86,8.63-1.03,12.41Z"/>
      </g>
      <g>
        <path class="cls-1" d="M1467.34,593.65c6.13,5.3,6.4,11.95,10.17,17.63l-10.17-1.44c4.08,3.73,12.95,3.15,13.07,8.28-3.89-.91-4.79-2.62-6.54-4.32l1.45,6.48-25.42.72c-1.38-8.15-3.22-16.26-2.91-24.47.63-.64-1.06-2.92,3.63-2.88l10.17,4.32,6.54-4.32Z"/>
        <path class="cls-1" d="M1442.64,608.77c-.67,3.54,0,8.5,0,12.24l-21.79.72c-.92-.07-2.14.1-2.91,0-3.79-2.53,10.17-4.32,10.17-5.4,0-.7-4.33-1.2-4.36-1.44-.07-.61,14.92-6.72,18.88-6.12Z"/>
        <path class="cls-9" d="M1449.91,621.01c.4,2.39,1.21,4.59,2.91,6.84-17.97,1.93-10.17-1.97-10.17-6.84,0-3.74-.67-8.7,0-12.24.4-2.11.84-4.39,1.45-6.48,1.06-3.62-.27-2.56,2.91-5.76-.31,8.21,1.53,16.32,2.91,24.47Z"/>
        <path class="cls-4" d="M1436.83,578.54c-.33,1.2-5.89,8.85-3.63,9.36,4.35-2.15,8.21-3.58,10.89-6.48,5.33,8.14.05,11.84-11.62,16.91l9.44-3.24,2.18,7.2c-.61,2.09-1.05,4.36-1.45,6.48-3.96-.6-18.95,5.51-18.88,6.12.03.23,4.36.74,4.36,1.44,0,1.08-13.96,2.87-10.17,5.4-1.5-.2-2.7-.09-4.36-.72,1.31-1.56,1.39-5.21,2.91-6.84,2.19-2.35,18.65-11.53,5.81-10.08-1.74-4.87,5.97-6.91,8.72-10.8-11.4,4.43-.84-14.1,5.81-14.75Z"/>
        <path class="cls-1" d="M1467.34,593.65l-6.54,4.32-10.17-4.32c-4.69-.04-3,2.24-3.63,2.88-3.17,3.2-1.85,2.14-2.91,5.76l-2.18-7.2-9.44,3.24c11.67-5.08,16.96-8.78,11.62-16.91,5.5-5.92,8.17-13.66,1.45-19.43.7-.75-1.75-3.77,2.91-2.52-1.63,6.09,19.09,23.59,17.43,28.07-1.04,2.8-9.35-2.12-11.62-.72,3.85,2.34,10.03,4.21,13.07,6.84Z"/>
        <path class="cls-4" d="M1444.1,581.42c-2.68,2.89-6.55,4.33-10.89,6.48-2.26-.51,3.3-8.16,3.63-9.36.52-1.85,2.36-1.78,2.91-3.24.07-.19-4.44-1.97-4.36-2.16,1.38-3.04,7.37-8.14,10.17-11.16,6.71,5.78,4.04,13.51-1.45,19.43Z"/>
      </g>
      <g>
        <path class="cls-1" d="M1432.4,637.92c3.31,4.51,3.45,10.17,5.48,15.01l-5.48-1.23c2.2,3.18,6.98,2.68,7.04,7.05-2.1-.77-2.58-2.23-3.52-3.68l.78,5.51-13.7.61c-.74-6.94-1.73-13.84-1.57-20.83.34-.54-.57-2.48,1.96-2.45l5.48,3.68,3.52-3.68Z"/>
        <path class="cls-1" d="M1419.1,650.79c-.36,3.01,0,7.24,0,10.41l-11.74.61c-.49-.06-1.15.09-1.57,0-2.04-2.15,5.48-3.68,5.48-4.59,0-.59-2.33-1.03-2.35-1.23-.04-.52,8.04-5.72,10.18-5.21Z"/>
        <path class="cls-9" d="M1423.01,661.2c.22,2.03.65,3.91,1.57,5.82-9.68,1.64-5.48-1.68-5.48-5.82,0-3.18-.36-7.4,0-10.41.22-1.8.45-3.73.78-5.51.57-3.08-.14-2.18,1.57-4.9-.17,6.99.82,13.89,1.57,20.83Z"/>
        <path class="cls-4" d="M1415.97,625.06c-.18,1.02-3.17,7.53-1.96,7.96,2.34-1.83,4.42-3.05,5.87-5.51,2.87,6.93.03,10.08-6.26,14.4l5.09-2.76,1.17,6.13c-.33,1.78-.57,3.72-.78,5.51-2.14-.51-10.21,4.69-10.18,5.21.01.2,2.35.63,2.35,1.23,0,.92-7.52,2.44-5.48,4.59-.81-.17-1.46-.08-2.35-.61.7-1.33.75-4.44,1.57-5.82,1.18-2,10.05-9.81,3.13-8.58-.94-4.15,3.22-5.88,4.7-9.19-6.14,3.77-.45-12,3.13-12.56Z"/>
        <path class="cls-1" d="M1432.4,637.92l-3.52,3.68-5.48-3.68c-2.53-.03-1.62,1.91-1.96,2.45-1.71,2.72-1,1.82-1.57,4.9l-1.17-6.13-5.09,2.76c6.29-4.32,9.14-7.47,6.26-14.4,2.96-5.04,4.4-11.62.78-16.54.37-.64-.94-3.21,1.57-2.14-.88,5.19,10.29,20.08,9.39,23.89-.56,2.38-5.04-1.8-6.26-.61,2.07,1.99,5.4,3.58,7.04,5.82Z"/>
        <path class="cls-4" d="M1419.88,627.51c-1.45,2.46-3.53,3.69-5.87,5.51-1.22-.43,1.78-6.95,1.96-7.96.28-1.57,1.27-1.51,1.57-2.76.04-.17-2.39-1.68-2.35-1.84.74-2.59,3.97-6.93,5.48-9.5,3.62,4.92,2.18,11.5-.78,16.54Z"/>
      </g>
      <g>
        <path class="cls-1" d="M1801.99,361.36c3.31,3.78,3.45,8.54,5.48,12.6l-5.48-1.03c2.2,2.67,6.98,2.25,7.04,5.91-2.1-.65-2.58-1.87-3.52-3.08l.78,4.63-13.7.51c-.74-5.82-1.73-11.62-1.57-17.48.34-.46-.57-2.08,1.96-2.06l5.48,3.08,3.52-3.08Z"/>
        <path class="cls-1" d="M1788.68,372.16c-.36,2.53,0,6.07,0,8.74l-11.74.51c-.49-.05-1.15.07-1.57,0-2.04-1.81,5.48-3.08,5.48-3.86,0-.5-2.33-.86-2.35-1.03-.04-.43,8.04-4.8,10.18-4.37Z"/>
        <path class="cls-9" d="M1792.59,380.9c.22,1.71.65,3.28,1.57,4.88-9.68,1.38-5.48-1.41-5.48-4.88,0-2.67-.36-6.21,0-8.74.22-1.51.45-3.13.78-4.63.57-2.59-.14-1.83,1.57-4.11-.17,5.86.82,11.66,1.57,17.48Z"/>
        <path class="cls-4" d="M1785.55,350.57c-.18.85-3.17,6.32-1.96,6.68,2.34-1.53,4.42-2.56,5.87-4.63,2.87,5.81.03,8.46-6.26,12.08l5.09-2.31,1.17,5.14c-.33,1.49-.57,3.12-.78,4.63-2.14-.43-10.21,3.94-10.18,4.37.01.17,2.35.53,2.35,1.03,0,.77-7.52,2.05-5.48,3.86-.81-.15-1.46-.07-2.35-.51.7-1.11.75-3.72,1.57-4.88,1.18-1.68,10.05-8.24,3.13-7.2-.94-3.48,3.22-4.93,4.7-7.71-6.14,3.17-.45-10.07,3.13-10.54Z"/>
        <path class="cls-1" d="M1801.99,361.36l-3.52,3.08-5.48-3.08c-2.53-.03-1.62,1.6-1.96,2.06-1.71,2.28-1,1.53-1.57,4.11l-1.17-5.14-5.09,2.31c6.29-3.63,9.14-6.27,6.26-12.08,2.96-4.23,4.4-9.75.78-13.88.37-.53-.94-2.7,1.57-1.8-.88,4.35,10.29,16.85,9.39,20.05-.56,2-5.04-1.51-6.26-.51,2.07,1.67,5.4,3.01,7.04,4.88Z"/>
        <path class="cls-4" d="M1789.46,352.62c-1.45,2.07-3.53,3.09-5.87,4.63-1.22-.36,1.78-5.83,1.96-6.68.28-1.32,1.27-1.27,1.57-2.31.04-.14-2.39-1.41-2.35-1.54.74-2.17,3.97-5.82,5.48-7.97,3.62,4.13,2.18,9.65-.78,13.88Z"/>
      </g>
      <g>
        <path class="cls-1" d="M1328.72,649.06c4.34,4.98,4.53,11.25,7.2,16.6l-7.2-1.35c2.89,3.51,9.17,2.97,9.25,7.79-2.75-.85-3.39-2.46-4.63-4.06l1.03,6.1-17.99.68c-.97-7.67-2.28-15.31-2.06-23.03.45-.6-.75-2.75,2.57-2.71l7.2,4.06,4.63-4.06Z"/>
        <path class="cls-1" d="M1311.24,663.29c-.47,3.33,0,8,0,11.52l-15.42.68c-.65-.06-1.51.1-2.06,0-2.68-2.38,7.2-4.06,7.2-5.08,0-.65-3.07-1.13-3.08-1.35-.05-.57,10.56-6.32,13.37-5.76Z"/>
        <path class="cls-9" d="M1316.38,674.81c.29,2.25.86,4.32,2.06,6.44-12.72,1.81-7.2-1.86-7.2-6.44,0-3.52-.47-8.19,0-11.52.28-1.99.6-4.13,1.03-6.1.75-3.41-.19-2.41,2.06-5.42-.22,7.73,1.08,15.36,2.06,23.03Z"/>
        <path class="cls-4" d="M1307.13,634.84c-.24,1.13-4.17,8.33-2.57,8.81,3.08-2.02,5.81-3.37,7.71-6.1,3.78,7.66.04,11.14-8.23,15.92l6.68-3.05,1.54,6.77c-.43,1.97-.75,4.11-1.03,6.1-2.81-.56-13.42,5.19-13.37,5.76.02.22,3.08.7,3.08,1.35,0,1.02-9.88,2.7-7.2,5.08-1.07-.19-1.91-.09-3.08-.68.92-1.47.98-4.91,2.06-6.44,1.55-2.21,13.2-10.85,4.11-9.48-1.23-4.58,4.23-6.5,6.17-10.16-8.07,4.17-.59-13.27,4.11-13.89Z"/>
        <path class="cls-1" d="M1328.72,649.06l-4.63,4.06-7.2-4.06c-3.32-.04-2.12,2.11-2.57,2.71-2.25,3.01-1.31,2.01-2.06,5.42l-1.54-6.77-6.68,3.05c8.26-4.78,12-8.26,8.23-15.92,3.89-5.58,5.78-12.85,1.03-18.29.49-.7-1.24-3.55,2.06-2.37-1.16,5.74,13.51,22.2,12.34,26.42-.73,2.63-6.62-2-8.23-.68,2.72,2.2,7.1,3.96,9.25,6.44Z"/>
        <path class="cls-4" d="M1312.27,637.55c-1.9,2.72-4.63,4.08-7.71,6.1-1.6-.48,2.33-7.68,2.57-8.81.37-1.74,1.67-1.67,2.06-3.05.05-.18-3.14-1.86-3.08-2.03.97-2.86,5.21-7.66,7.2-10.5,4.75,5.44,2.86,12.72-1.03,18.29Z"/>
      </g>
      <g>
        <path class="cls-1" d="M1356.01,619.16c-4.43,4.98-4.62,11.25-7.35,16.6l7.35-1.35c-2.95,3.51-9.36,2.97-9.45,7.79,2.81-.85,3.46-2.46,4.72-4.06l-1.05,6.1,18.37.68c.99-7.67,2.32-15.31,2.1-23.03-.46-.6.76-2.75-2.62-2.71l-7.35,4.06-4.72-4.06Z"/>
        <path class="cls-1" d="M1373.86,633.39c.48,3.33,0,8,0,11.52l15.74.68c.66-.06,1.54.1,2.1,0,2.74-2.38-7.35-4.06-7.35-5.08,0-.65,3.13-1.13,3.15-1.35.05-.57-10.78-6.32-13.65-5.76Z"/>
        <path class="cls-9" d="M1368.61,644.9c-.29,2.25-.88,4.32-2.1,6.44,12.98,1.81,7.35-1.86,7.35-6.44,0-3.52.48-8.19,0-11.52-.29-1.99-.61-4.13-1.05-6.1-.76-3.41.19-2.41-2.1-5.42.23,7.73-1.11,15.36-2.1,23.03Z"/>
        <path class="cls-4" d="M1378.06,604.93c.24,1.13,4.26,8.33,2.62,8.81-3.14-2.02-5.93-3.37-7.87-6.1-3.85,7.66-.04,11.14,8.4,15.92l-6.82-3.05-1.57,6.77c.44,1.97.76,4.11,1.05,6.1,2.86-.56,13.69,5.19,13.65,5.76-.02.22-3.15.7-3.15,1.35,0,1.02,10.08,2.7,7.35,5.08,1.09-.19,1.95-.09,3.15-.68-.94-1.47-1-4.91-2.1-6.44-1.58-2.21-13.48-10.85-4.2-9.48,1.26-4.58-4.31-6.5-6.3-10.16,8.24,4.17.6-13.27-4.2-13.89Z"/>
        <path class="cls-1" d="M1356.01,619.16l4.72,4.06,7.35-4.06c3.39-.04,2.17,2.11,2.62,2.71,2.29,3.01,1.34,2.01,2.1,5.42l1.57-6.77,6.82,3.05c-8.44-4.78-12.25-8.26-8.4-15.92-3.97-5.58-5.9-12.85-1.05-18.29-.5-.7,1.27-3.55-2.1-2.37,1.18,5.74-13.8,22.2-12.6,26.42.75,2.63,6.75-2,8.4-.68-2.78,2.2-7.25,3.96-9.45,6.44Z"/>
        <path class="cls-4" d="M1372.81,607.64c1.94,2.72,4.73,4.08,7.87,6.1,1.63-.48-2.38-7.68-2.62-8.81-.37-1.74-1.7-1.67-2.1-3.05-.05-.18,3.21-1.86,3.15-2.03-1-2.86-5.32-7.66-7.35-10.5-4.85,5.44-2.92,12.72,1.05,18.29Z"/>
      </g>
      <g>
        <path class="cls-1" d="M1634.35,785.02c3.07,4.98,3.2,11.25,5.09,16.6l-5.09-1.35c2.04,3.51,6.48,2.97,6.54,7.79-1.94-.85-2.4-2.46-3.27-4.06l.73,6.1-12.71.68c-.69-7.67-1.61-15.31-1.45-23.03.32-.6-.53-2.75,1.82-2.71l5.09,4.06,3.27-4.06Z"/>
        <path class="cls-1" d="M1622,799.25c-.33,3.33,0,8,0,11.52l-10.9.68c-.46-.06-1.07.1-1.45,0-1.89-2.38,5.09-4.06,5.09-5.08,0-.65-2.17-1.13-2.18-1.35-.03-.57,7.46-6.32,9.44-5.76Z"/>
        <path class="cls-9" d="M1625.63,810.77c.2,2.25.61,4.32,1.45,6.44-8.99,1.81-5.09-1.86-5.09-6.44,0-3.52-.33-8.19,0-11.52.2-1.99.42-4.13.73-6.1.53-3.41-.13-2.41,1.45-5.42-.16,7.73.77,15.36,1.45,23.03Z"/>
        <path class="cls-4" d="M1619.09,770.8c-.17,1.13-2.95,8.33-1.82,8.81,2.17-2.02,4.11-3.37,5.45-6.1,2.67,7.66.03,11.14-5.81,15.92l4.72-3.05,1.09,6.77c-.31,1.97-.53,4.11-.73,6.1-1.98-.56-9.48,5.19-9.44,5.76.01.22,2.18.7,2.18,1.35,0,1.02-6.98,2.7-5.09,5.08-.75-.19-1.35-.09-2.18-.68.65-1.47.69-4.91,1.45-6.44,1.09-2.21,9.33-10.85,2.91-9.48-.87-4.58,2.99-6.5,4.36-10.16-5.7,4.17-.42-13.27,2.91-13.89Z"/>
        <path class="cls-1" d="M1634.35,785.02l-3.27,4.06-5.09-4.06c-2.35-.04-1.5,2.11-1.82,2.71-1.59,3.01-.93,2.01-1.45,5.42l-1.09-6.77-4.72,3.05c5.84-4.78,8.48-8.26,5.81-15.92,2.75-5.58,4.08-12.85.73-18.29.35-.7-.88-3.55,1.45-2.37-.82,5.74,9.55,22.2,8.72,26.42-.52,2.63-4.67-2-5.81-.68,1.92,2.2,5.02,3.96,6.54,6.44Z"/>
        <path class="cls-4" d="M1622.72,773.51c-1.34,2.72-3.27,4.08-5.45,6.1-1.13-.48,1.65-7.68,1.82-8.81.26-1.74,1.18-1.67,1.45-3.05.04-.18-2.22-1.86-2.18-2.03.69-2.86,3.68-7.66,5.09-10.5,3.36,5.44,2.02,12.72-.73,18.29Z"/>
      </g>
      <g>
        <path class="cls-1" d="M1578.33,791.03c3,4.46,3.13,10.07,4.97,14.86l-4.97-1.21c2,3.14,6.33,2.66,6.39,6.98-1.9-.77-2.34-2.2-3.2-3.64l.71,5.46-12.43.61c-.67-6.87-1.57-13.7-1.42-20.62.31-.54-.52-2.46,1.78-2.43l4.97,3.64,3.2-3.64Z"/>
        <path class="cls-1" d="M1566.25,803.77c-.33,2.98,0,7.16,0,10.31l-10.66.61c-.45-.06-1.05.09-1.42,0-1.85-2.13,4.97-3.64,4.97-4.55,0-.59-2.12-1.02-2.13-1.21-.03-.51,7.3-5.66,9.24-5.16Z"/>
        <path class="cls-9" d="M1569.8,814.08c.2,2.01.59,3.87,1.42,5.76-8.79,1.62-4.97-1.66-4.97-5.76,0-3.15-.33-7.33,0-10.31.2-1.78.41-3.7.71-5.46.52-3.05-.13-2.16,1.42-4.85-.15,6.92.75,13.75,1.42,20.62Z"/>
        <path class="cls-4" d="M1563.41,778.3c-.16,1.01-2.88,7.46-1.78,7.88,2.13-1.81,4.02-3.02,5.33-5.46,2.61,6.86.03,9.98-5.68,14.25l4.62-2.73,1.07,6.07c-.3,1.76-.51,3.68-.71,5.46-1.94-.51-9.27,4.64-9.24,5.16.01.2,2.13.63,2.13,1.21,0,.91-6.83,2.42-4.97,4.55-.74-.17-1.32-.08-2.13-.61.64-1.31.68-4.39,1.42-5.76,1.07-1.98,9.12-9.72,2.84-8.49-.85-4.1,2.92-5.82,4.26-9.1-5.58,3.74-.41-11.88,2.84-12.43Z"/>
        <path class="cls-1" d="M1578.33,791.03l-3.2,3.64-4.97-3.64c-2.29-.03-1.47,1.89-1.78,2.43-1.55,2.69-.9,1.8-1.42,4.85l-1.07-6.07-4.62,2.73c5.71-4.28,8.29-7.4,5.68-14.25,2.69-4.99,3.99-11.51.71-16.38.34-.63-.86-3.18,1.42-2.12-.8,5.14,9.34,19.88,8.52,23.65-.51,2.36-4.57-1.79-5.68-.61,1.88,1.97,4.9,3.55,6.39,5.76Z"/>
        <path class="cls-4" d="M1566.96,780.72c-1.31,2.44-3.2,3.65-5.33,5.46-1.1-.43,1.61-6.88,1.78-7.88.25-1.55,1.15-1.5,1.42-2.73.04-.16-2.17-1.66-2.13-1.82.67-2.56,3.6-6.86,4.97-9.4,3.28,4.87,1.98,11.38-.71,16.38Z"/>
      </g>
      <g>
        <path class="cls-1" d="M1724.87,653.85c3.07,2.91,3.2,6.58,5.09,9.7l-5.09-.79c2.04,2.05,6.48,1.74,6.54,4.56-1.94-.5-2.4-1.44-3.27-2.38l.73,3.56-12.71.4c-.69-4.49-1.61-8.95-1.45-13.47.32-.35-.53-1.61,1.82-1.58l5.09,2.38,3.27-2.38Z"/>
        <path class="cls-1" d="M1712.52,662.17c-.33,1.95,0,4.68,0,6.73l-10.9.4c-.46-.04-1.07.06-1.45,0-1.89-1.39,5.09-2.38,5.09-2.97,0-.38-2.17-.66-2.18-.79-.03-.33,7.46-3.7,9.44-3.37Z"/>
        <path class="cls-9" d="M1716.15,668.91c.2,1.31.61,2.53,1.45,3.76-8.99,1.06-5.09-1.09-5.09-3.76,0-2.06-.33-4.79,0-6.73.2-1.16.42-2.41.73-3.56.53-1.99-.13-1.41,1.45-3.17-.16,4.52.77,8.98,1.45,13.47Z"/>
        <path class="cls-4" d="M1709.61,645.54c-.17.66-2.95,4.87-1.82,5.15,2.17-1.18,4.11-1.97,5.45-3.56,2.67,4.48.03,6.51-5.81,9.31l4.72-1.78,1.09,3.96c-.31,1.15-.53,2.4-.73,3.56-1.98-.33-9.48,3.03-9.44,3.37.01.13,2.18.41,2.18.79,0,.59-6.98,1.58-5.09,2.97-.75-.11-1.35-.05-2.18-.4.65-.86.69-2.87,1.45-3.76,1.09-1.29,9.33-6.35,2.91-5.55-.87-2.68,2.99-3.8,4.36-5.94-5.7,2.44-.42-7.76,2.91-8.12Z"/>
        <path class="cls-1" d="M1724.87,653.85l-3.27,2.38-5.09-2.38c-2.35-.02-1.5,1.23-1.82,1.58-1.59,1.76-.93,1.18-1.45,3.17l-1.09-3.96-4.72,1.78c5.84-2.79,8.48-4.83,5.81-9.31,2.75-3.26,4.08-7.51.73-10.69.35-.41-.88-2.08,1.45-1.39-.82,3.35,9.55,12.98,8.72,15.45-.52,1.54-4.67-1.17-5.81-.4,1.92,1.29,5.02,2.32,6.54,3.76Z"/>
        <path class="cls-4" d="M1713.24,647.12c-1.34,1.59-3.27,2.38-5.45,3.56-1.13-.28,1.65-4.49,1.82-5.15.26-1.02,1.18-.98,1.45-1.78.04-.11-2.22-1.09-2.18-1.19.69-1.67,3.68-4.48,5.09-6.14,3.36,3.18,2.02,7.43-.73,10.69Z"/>
      </g>
      <g>
        <path class="cls-1" d="M1543.09,846.81c3.07,2.91,3.2,6.58,5.09,9.7l-5.09-.79c2.04,2.05,6.48,1.74,6.54,4.56-1.94-.5-2.4-1.44-3.27-2.38l.73,3.56-12.71.4c-.69-4.49-1.61-8.95-1.45-13.47.32-.35-.53-1.61,1.82-1.58l5.09,2.38,3.27-2.38Z"/>
        <path class="cls-1" d="M1530.74,855.13c-.33,1.95,0,4.68,0,6.73l-10.9.4c-.46-.04-1.07.06-1.45,0-1.89-1.39,5.09-2.38,5.09-2.97,0-.38-2.17-.66-2.18-.79-.03-.33,7.46-3.7,9.44-3.37Z"/>
        <path class="cls-9" d="M1534.37,861.86c.2,1.31.61,2.53,1.45,3.76-8.99,1.06-5.09-1.09-5.09-3.76,0-2.06-.33-4.79,0-6.73.2-1.16.42-2.41.73-3.56.53-1.99-.13-1.41,1.45-3.17-.16,4.52.77,8.98,1.45,13.47Z"/>
        <path class="cls-4" d="M1527.83,838.49c-.17.66-2.95,4.87-1.82,5.15,2.17-1.18,4.11-1.97,5.45-3.56,2.67,4.48.03,6.51-5.81,9.31l4.72-1.78,1.09,3.96c-.31,1.15-.53,2.4-.73,3.56-1.98-.33-9.48,3.03-9.44,3.37.01.13,2.18.41,2.18.79,0,.59-6.98,1.58-5.09,2.97-.75-.11-1.35-.05-2.18-.4.65-.86.69-2.87,1.45-3.76,1.09-1.29,9.33-6.35,2.91-5.55-.87-2.68,2.99-3.8,4.36-5.94-5.7,2.44-.42-7.76,2.91-8.12Z"/>
        <path class="cls-1" d="M1543.09,846.81l-3.27,2.38-5.09-2.38c-2.35-.02-1.5,1.23-1.82,1.58-1.59,1.76-.93,1.18-1.45,3.17l-1.09-3.96-4.72,1.78c5.84-2.79,8.48-4.83,5.81-9.31,2.75-3.26,4.08-7.51.73-10.69.35-.41-.88-2.08,1.45-1.39-.82,3.35,9.55,12.98,8.72,15.45-.52,1.54-4.67-1.17-5.81-.4,1.92,1.29,5.02,2.32,6.54,3.76Z"/>
        <path class="cls-4" d="M1531.46,840.07c-1.34,1.59-3.27,2.38-5.45,3.56-1.13-.28,1.65-4.49,1.82-5.15.26-1.02,1.18-.98,1.45-1.78.04-.11-2.22-1.09-2.18-1.19.69-1.67,3.68-4.48,5.09-6.14,3.36,3.18,2.02,7.43-.73,10.69Z"/>
      </g>
      <g>
        <path class="cls-1" d="M1682.63,687.22c4.34,4.98,4.53,11.25,7.2,16.6l-7.2-1.35c2.89,3.51,9.17,2.97,9.25,7.79-2.75-.85-3.39-2.46-4.63-4.06l1.03,6.1-17.99.68c-.97-7.67-2.28-15.31-2.06-23.03.45-.6-.75-2.75,2.57-2.71l7.2,4.06,4.63-4.06Z"/>
        <path class="cls-1" d="M1665.15,701.45c-.47,3.33,0,8,0,11.52l-15.42.68c-.65-.06-1.51.1-2.06,0-2.68-2.38,7.2-4.06,7.2-5.08,0-.65-3.07-1.13-3.08-1.35-.05-.57,10.56-6.32,13.37-5.76Z"/>
        <path class="cls-9" d="M1670.29,712.97c.29,2.25.86,4.32,2.06,6.44-12.72,1.81-7.2-1.86-7.2-6.44,0-3.52-.47-8.19,0-11.52.28-1.99.6-4.13,1.03-6.1.75-3.41-.19-2.41,2.06-5.42-.22,7.73,1.08,15.36,2.06,23.03Z"/>
        <path class="cls-4" d="M1661.04,673c-.24,1.13-4.17,8.33-2.57,8.81,3.08-2.02,5.81-3.37,7.71-6.1,3.78,7.66.04,11.14-8.23,15.92l6.68-3.05,1.54,6.77c-.43,1.97-.75,4.11-1.03,6.1-2.81-.56-13.42,5.19-13.37,5.76.02.22,3.08.7,3.08,1.35,0,1.02-9.88,2.7-7.2,5.08-1.07-.19-1.91-.09-3.08-.68.92-1.47.98-4.91,2.06-6.44,1.55-2.21,13.2-10.85,4.11-9.48-1.23-4.58,4.23-6.5,6.17-10.16-8.07,4.17-.59-13.27,4.11-13.89Z"/>
        <path class="cls-1" d="M1682.63,687.22l-4.63,4.06-7.2-4.06c-3.32-.04-2.12,2.11-2.57,2.71-2.25,3.01-1.31,2.01-2.06,5.42l-1.54-6.77-6.68,3.05c8.26-4.78,12-8.26,8.23-15.92,3.89-5.58,5.78-12.85,1.03-18.29.49-.7-1.24-3.55,2.06-2.37-1.16,5.74,13.51,22.2,12.34,26.42-.73,2.63-6.62-2-8.23-.68,2.72,2.2,7.1,3.96,9.25,6.44Z"/>
        <path class="cls-4" d="M1666.18,675.71c-1.9,2.72-4.63,4.08-7.71,6.1-1.6-.48,2.33-7.68,2.57-8.81.37-1.74,1.67-1.67,2.06-3.05.05-.18-3.14-1.86-3.08-2.03.97-2.86,5.21-7.66,7.2-10.5,4.75,5.44,2.86,12.72-1.03,18.29Z"/>
      </g>
      <g>
        <path class="cls-1" d="M1622.38,727.63c4.34,3.38,4.53,7.63,7.2,11.26l-7.2-.92c2.89,2.38,9.17,2.01,9.25,5.28-2.75-.58-3.39-1.67-4.63-2.76l1.03,4.14-17.99.46c-.97-5.21-2.28-10.38-2.06-15.62.45-.41-.75-1.86,2.57-1.84l7.2,2.76,4.63-2.76Z"/>
        <path class="cls-1" d="M1604.9,737.28c-.47,2.26,0,5.43,0,7.81l-15.42.46c-.65-.04-1.51.07-2.06,0-2.68-1.62,7.2-2.76,7.2-3.45,0-.44-3.07-.77-3.08-.92-.05-.39,10.56-4.29,13.37-3.91Z"/>
        <path class="cls-9" d="M1610.04,745.09c.29,1.53.86,2.93,2.06,4.37-12.72,1.23-7.2-1.26-7.2-4.37,0-2.38-.47-5.55,0-7.81.28-1.35.6-2.8,1.03-4.14.75-2.31-.19-1.64,2.06-3.68-.22,5.24,1.08,10.42,2.06,15.62Z"/>
        <path class="cls-4" d="M1600.78,717.98c-.24.76-4.17,5.65-2.57,5.97,3.08-1.37,5.81-2.29,7.71-4.14,3.78,5.19.04,7.56-8.23,10.8l6.68-2.07,1.54,4.6c-.43,1.34-.75,2.79-1.03,4.14-2.81-.38-13.42,3.52-13.37,3.91.02.15,3.08.48,3.08.92,0,.69-9.88,1.83-7.2,3.45-1.07-.13-1.91-.06-3.08-.46.92-1,.98-3.33,2.06-4.37,1.55-1.5,13.2-7.36,4.11-6.43-1.23-3.11,4.23-4.41,6.17-6.89-8.07,2.83-.59-9,4.11-9.42Z"/>
        <path class="cls-1" d="M1622.38,727.63l-4.63,2.76-7.2-2.76c-3.32-.02-2.12,1.43-2.57,1.84-2.25,2.04-1.31,1.36-2.06,3.68l-1.54-4.6-6.68,2.07c8.26-3.24,12-5.6,8.23-10.8,3.89-3.78,5.78-8.72,1.03-12.41.49-.48-1.24-2.41,2.06-1.61-1.16,3.89,13.51,15.06,12.34,17.92-.73,1.79-6.62-1.35-8.23-.46,2.72,1.5,7.1,2.69,9.25,4.37Z"/>
        <path class="cls-4" d="M1605.93,719.82c-1.9,1.85-4.63,2.77-7.71,4.14-1.6-.32,2.33-5.21,2.57-5.97.37-1.18,1.67-1.13,2.06-2.07.05-.12-3.14-1.26-3.08-1.38.97-1.94,5.21-5.2,7.2-7.12,4.75,3.69,2.86,8.63-1.03,12.41Z"/>
      </g>
      <g>
        <path class="cls-1" d="M1682.63,729.39c4.34,4.98,4.53,11.25,7.2,16.6l-7.2-1.35c2.89,3.51,9.17,2.97,9.25,7.79-2.75-.85-3.39-2.46-4.63-4.06l1.03,6.1-17.99.68c-.97-7.67-2.28-15.31-2.06-23.03.45-.6-.75-2.75,2.57-2.71l7.2,4.06,4.63-4.06Z"/>
        <path class="cls-1" d="M1665.15,743.62c-.47,3.33,0,8,0,11.52l-15.42.68c-.65-.06-1.51.1-2.06,0-2.68-2.38,7.2-4.06,7.2-5.08,0-.65-3.07-1.13-3.08-1.35-.05-.57,10.56-6.32,13.37-5.76Z"/>
        <path class="cls-9" d="M1670.29,755.13c.29,2.25.86,4.32,2.06,6.44-12.72,1.81-7.2-1.86-7.2-6.44,0-3.52-.47-8.19,0-11.52.28-1.99.6-4.13,1.03-6.1.75-3.41-.19-2.41,2.06-5.42-.22,7.73,1.08,15.36,2.06,23.03Z"/>
        <path class="cls-4" d="M1661.04,715.16c-.24,1.13-4.17,8.33-2.57,8.81,3.08-2.02,5.81-3.37,7.71-6.1,3.78,7.66.04,11.14-8.23,15.92l6.68-3.05,1.54,6.77c-.43,1.97-.75,4.11-1.03,6.1-2.81-.56-13.42,5.19-13.37,5.76.02.22,3.08.7,3.08,1.35,0,1.02-9.88,2.7-7.2,5.08-1.07-.19-1.91-.09-3.08-.68.92-1.47.98-4.91,2.06-6.44,1.55-2.21,13.2-10.85,4.11-9.48-1.23-4.58,4.23-6.5,6.17-10.16-8.07,4.17-.59-13.27,4.11-13.89Z"/>
        <path class="cls-1" d="M1682.63,729.39l-4.63,4.06-7.2-4.06c-3.32-.04-2.12,2.11-2.57,2.71-2.25,3.01-1.31,2.01-2.06,5.42l-1.54-6.77-6.68,3.05c8.26-4.78,12-8.26,8.23-15.92,3.89-5.58,5.78-12.85,1.03-18.29.49-.7-1.24-3.55,2.06-2.37-1.16,5.74,13.51,22.2,12.34,26.42-.73,2.63-6.62-2-8.23-.68,2.72,2.2,7.1,3.96,9.25,6.44Z"/>
        <path class="cls-4" d="M1666.18,717.87c-1.9,2.72-4.63,4.08-7.71,6.1-1.6-.48,2.33-7.68,2.57-8.81.37-1.74,1.67-1.67,2.06-3.05.05-.18-3.14-1.86-3.08-2.03.97-2.86,5.21-7.66,7.2-10.5,4.75,5.44,2.86,12.72-1.03,18.29Z"/>
      </g>
      <g>
        <path class="cls-1" d="M1736.54,424.02c4.07,4.78,4.24,10.79,6.75,15.92l-6.75-1.3c2.71,3.37,8.6,2.85,8.68,7.47-2.58-.82-3.18-2.36-4.34-3.9l.96,5.85-16.87.65c-.91-7.36-2.13-14.68-1.93-22.09.42-.58-.7-2.63,2.41-2.6l6.75,3.9,4.34-3.9Z"/>
        <path class="cls-1" d="M1720.15,437.66c-.44,3.19,0,7.67,0,11.05l-14.46.65c-.61-.06-1.42.09-1.93,0-2.51-2.28,6.75-3.9,6.75-4.87,0-.63-2.87-1.09-2.89-1.3-.05-.55,9.9-6.07,12.53-5.52Z"/>
        <path class="cls-9" d="M1724.97,448.71c.27,2.16.81,4.15,1.93,6.17-11.92,1.74-6.75-1.78-6.75-6.17,0-3.37-.44-7.85,0-11.05.27-1.91.56-3.96.96-5.85.7-3.27-.18-2.31,1.93-5.2-.21,7.41,1.02,14.73,1.93,22.09Z"/>
        <path class="cls-4" d="M1716.29,410.37c-.22,1.08-3.91,7.99-2.41,8.45,2.89-1.94,5.45-3.24,7.23-5.85,3.54,7.35.03,10.69-7.71,15.27l6.27-2.92,1.45,6.5c-.4,1.89-.7,3.94-.96,5.85-2.63-.54-12.58,4.98-12.53,5.52.02.21,2.89.67,2.89,1.3,0,.97-9.26,2.59-6.75,4.87-1-.18-1.79-.08-2.89-.65.87-1.41.92-4.71,1.93-6.17,1.45-2.12,12.38-10.41,3.86-9.1-1.15-4.4,3.96-6.24,5.78-9.75-7.56,4-.55-12.73,3.86-13.32Z"/>
        <path class="cls-1" d="M1736.54,424.02l-4.34,3.9-6.75-3.9c-3.11-.03-1.99,2.02-2.41,2.6-2.11,2.89-1.23,1.93-1.93,5.2l-1.45-6.5-6.27,2.92c7.75-4.58,11.25-7.93,7.71-15.27,3.65-5.35,5.42-12.33.96-17.55.46-.68-1.16-3.41,1.93-2.27-1.08,5.5,12.67,21.3,11.57,25.34-.69,2.52-6.2-1.91-7.71-.65,2.55,2.11,6.65,3.8,8.68,6.17Z"/>
        <path class="cls-4" d="M1721.11,412.97c-1.78,2.61-4.34,3.91-7.23,5.85-1.5-.46,2.19-7.37,2.41-8.45.34-1.67,1.56-1.6,1.93-2.92.05-.18-2.95-1.78-2.89-1.95.91-2.75,4.89-7.35,6.75-10.07,4.45,5.22,2.68,12.2-.96,17.55Z"/>
      </g>
    </g>
  </g>
  <g id="Sun">
    <g class="cls-5">
      <path class="cls-8" d="M540.67,293.86c-11.39,59.88-40.11,113.89-71.6,147.06-32.07,33.75-66.91,46.66-104.01,37.84-37.1-8.83-71.94-35.22-104.01-65.03-31.49-30.39-60.21-64.19-71.6-101.29-11.39-37.1-.8-72.98,31.27-106.73,31.49-33.17,84.45-64.21,144.34-78.17,59.88-13.96,112.85-5.69,144.34,24.7,32.07,29.81,42.66,81.73,31.27,141.62Z"/>
    </g>
    <g class="cls-5">
      <path class="cls-8" d="M598.31,322.98c16.45,86.78,3.43,160.67-39.2,198.72-41.79,39.19-113.19,42.55-194.04,14.7-80.86-27.84-152.26-76.7-194.04-121.93-42.63-46.37-55.65-89.1-39.2-131.14,16.45-42.04,55.64-80.34,97.43-119.53,42.63-38.05,87.86-77,135.82-93.89,47.96-16.89,93.19-3.63,135.82,42.74,41.79,45.22,80.98,123.55,97.43,210.33Z"/>
    </g>
    <g class="cls-5">
      <path class="cls-8" d="M492.8,303.15c0,25.91-14.3,50.39-37.41,73.74-23.12,22.88-55.05,44.63-90.32,53.99-35.27,9.37-67.21,2.52-90.32-20.83-23.12-22.88-37.41-62.26-37.41-106.9,0-44.64,14.3-84.03,37.41-106.9,23.12-23.36,55.05-30.2,90.32-20.83,35.27,9.37,67.21,31.12,90.32,53.99,23.12,23.36,37.41,47.84,37.41,73.74Z"/>
    </g>
    <circle class="cls-8" cx="365.06" cy="303.15" r="92.16"/>
  </g>
</svg>