<?xml version="1.0" encoding="UTF-8"?>
<svg xmlns="http://www.w3.org/2000/svg" viewBox="0 0 900 900">
  <defs>
    <style>
      .cls-1 {
        fill: #e0e0e0;
      }

      .cls-2 {
        fill: #dfdfdf;
      }

      .cls-3 {
        fill: #d6d6d6;
      }

      .cls-4 {
        fill: #bdbdbd;
      }

      .cls-5, .cls-6 {
        fill: #cecece;
      }

      .cls-5, .cls-7 {
        mix-blend-mode: soft-light;
      }

      .cls-8 {
        fill: #eaeaea;
      }

      .cls-9 {
        fill: #d2d2d2;
      }

      .cls-10 {
        fill: #e6e6e6;
      }

      .cls-11 {
        fill: #e2e2e2;
      }

      .cls-12 {
        fill: #ebebeb;
      }

      .cls-13 {
        fill: #dbdbdb;
      }

      .cls-14 {
        fill: #c1c1c1;
      }

      .cls-7 {
        opacity: .15;
      }

      .cls-15 {
        fill: #e5e5e5;
      }

      .cls-16 {
        fill: #ccc;
      }

      .cls-17 {
        isolation: isolate;
      }

      .cls-18 {
        fill: #c3c3c3;
      }

      .cls-19 {
        fill: #c4c4c4;
      }

      .cls-20 {
        fill: #e7e7e7;
      }

      .cls-21 {
        fill: #bcbcbc;
      }

      .cls-22 {
        fill: #c5c5c5;
      }

      .cls-23 {
        fill: #cdcdcd;
      }

      .cls-24 {
        fill: #e9e9e9;
      }

      .cls-25 {
        fill: silver;
      }

      .cls-26 {
        fill: #bfbfbf;
      }

      .cls-27 {
        fill: #c2c2c2;
      }

      .cls-28 {
        fill: #cbcbcb;
      }

      .cls-29 {
        fill: #dadada;
      }

      .cls-30 {
        fill: #eee;
      }

      .cls-31 {
        fill: #dcdcdc;
      }

      .cls-32 {
        fill: #cacaca;
      }

      .cls-33 {
        fill: #e8e8e8;
      }

      .cls-34 {
        fill: #ececec;
      }
    </style>
  </defs>
  <g class="cls-17">
    <g id="Sun">
      <g>
        <g class="cls-7">
          <path class="cls-6" d="M678.7,437.9c-14.84,77.99-52.24,148.32-93.25,191.52-41.77,43.96-87.14,60.77-135.45,49.28-48.32-11.5-93.69-45.87-135.45-84.69-41.01-39.58-78.41-83.59-93.25-131.91-14.84-48.32-1.04-95.04,40.72-139,41.01-43.2,109.99-83.62,187.98-101.8,77.99-18.18,146.97-7.41,187.98,32.17,41.77,38.82,55.56,106.44,40.72,184.43Z"/>
        </g>
        <g class="cls-7">
          <path class="cls-6" d="M753.77,475.82c21.42,113.01,4.46,209.25-51.06,258.8-54.42,51.04-147.41,55.41-252.71,19.15-105.3-36.26-198.29-99.9-252.71-158.79-55.52-60.39-72.48-116.04-51.06-170.8,21.42-54.75,72.46-104.63,126.89-155.67,55.52-49.55,114.42-100.28,176.88-122.28,62.46-22,121.36-4.72,176.88,55.66,54.42,58.9,105.47,160.91,126.89,273.92Z"/>
        </g>
        <g class="cls-7">
          <path class="cls-6" d="M616.36,450c0,33.74-18.62,65.62-48.72,96.04-30.1,29.79-71.69,58.12-117.63,70.32-45.94,12.2-87.53,3.29-117.63-27.13-30.1-29.79-48.72-81.09-48.72-139.23,0-58.14,18.62-109.43,48.72-139.23,30.1-30.42,71.69-39.33,117.63-27.13,45.94,12.2,87.53,40.53,117.63,70.32,30.1,30.42,48.72,62.3,48.72,96.04Z"/>
        </g>
        <circle class="cls-5" cx="450" cy="450" r="120.02"/>
        <g>
          <path class="cls-9" d="M412.93,334.79c2.42-.48,4.79,1.43,2,3.06-36.89,11.76-64.61,43.21-73.97,80.52.32,2.01-1.09,3.96-2.2,1.74-1.31-1.64-1.6,2.35-1.12,3.35,1.57-1.85,3.28.19,1.67,1.67l-.53,1.28c1.02,2.48-.57,3.52-2.76,2.15-.8.32-2.25,11.65-1.93,13.18,2.03,1.58,2.4,7.81-.43,8.51-.31,3.16.24,6.06,1.01,9.11-1.17,3.02-.97,5.58.57,7.67l1.1,9.09c.78,3.55,3.55,7.37,1.6.94,1.23-4.47,8.74,2.01,4.63,4.39l1.13,6.29c-.22,1.02-.98,1.33-2,1.13,2.64,2.77,4.68,5.87,6.09,9.3,2.28-1.15,3.77.1,4.49,3.76.71-.37,3.05.01,3.72.26,1.86.7,4.03,4.16,4.71,5.93,2.77,0,4.69.8,5.75,2.39.71,2.45,4.61,10.49,7.26,10.08,3.06-1.51,4-1.35,6.26,1.24,1.93-.46,3.22.66,3.87,3.36l.73.57c.63-1.73,7.2.96,7.77,1.49.09,2.99,5.03,3.26,7.17,2.72,1.52-2.4,3.04.61,2.87,2.67.2.31,5.93,3.44,6.34,2.92,61.58,28.52,133.69-12.37,141.32-80.34,1.11-9.87,2.36-22.72-3.72-30.89l.41-1.44c-.91-2.84,2.64-1.4,3.26.79,1.6-2.83.62-5.22-1.23-7.63-.75-1.59-.1-2.69,1.38-3.49-1.77-3.36-2.49-6.54-2.52-10.32-3.31.43-6.05-3.33-6.46-6.13-.48-3.22-.36-7.84,3.8-7.71-.37-5.73,3.83-2.45,4.91,1.15,1.17-.83,3.07,1.62,3.89,2.77,1.09,1.55,3.46,5.37,1.76,6.53l.37,2.83c2.35,1.07,3.7,5.93.94,6.69,2.75-.15,3.92,2.01,4.11,4.46,1.92.31,3.48,2.81,2.11,4.23.46-.25.86-.14,1.21.27.49,2.93,1.34,5.71,2.55,8.33.69,3.01,1.68,6.28,2.2,9.28,1.08,6.23.74,12.17.56,18.86-1.11,41.43-18.06,73.66-53,96.45-89.46,58.34-205.21-21.32-183.82-125.83,8.39-41.01,34.7-70.12,72.34-86.32,1.64-.28,2.95-.83,3.9-2.23.94-.37,2.78-.78,3.9-1.12Z"/>
          <path class="cls-3" d="M472.04,332.56c1.41,1,2.88,1.87,4.4,2.62,1.39-1.2,12.52,1.65,12.56,2.32,0,.09-1.4-.24.33-.47,11.89,3.89,21.28,9.29,31.23,16.73l.74,1.51c3.77,2.22,5.08,4.79,3.93,7.71l1.55.7c2.06,3.87,4.89,7.28,7.74,10.63,1.29,1.9.01,3.87-2.07,2.65-.88.81-1.99,1.18-3.34,1.11-.63,1.51-1.44,2.28-2.42.78-2.6-3.8-5.98-6.69-10.12-8.68l-.47-1.35c-.91-1,.68-3.74,1.69-4.32.32-2.69-.24-4.7-2.65-6.08-.82-1.24-.26-2.3,1.11-2.81-3.24-1.47-4.79-3.28-4.64-5.45-3.29-2.01-6.27-3.82-10.23-3.4,2.02,2.85-.34,3.85-3.1,2.93-2.26-.75-3.2-.73-3.36,2.23l-1.14.73c-.87,1.03-2.12.7-3.75-.96l-4.59-.3c-16.89-10.34-39.38-8.29-58.25-4.28l-2.56-.59c-.19.41-.48.84-.87.83-3.44-.13-7.14,1.21-9.97,3.33l-1.43-.26c-15.29,7.07-29.34,17.58-40.65,30.8l-.35,1.45c.74,3.56-.26,10.06-3.86,4.78-.81-.87-4.87,9.91-5.18,10.8-5.07,8.27-8.56,17.66-10.29,27.12l-1.02.89c-.99.81-1.56.31-2.37-.42-.79,5.42-5.7,3.33-4.6-1.33l-.36,2.23c-2.34,1.08-6.4,1.91-4.38-1.6-.21-.47-.39-1.21-.67-1.52-.03-.04-.62-.01-1-.16-.6-.97-.29-3.27,1.12-3.35,1.84.33.87-.96,1.1-1.94,5.42-22.31,18.74-44.37,36-59.39,11.38-9.9,25.39-18.01,39.86-22.33l-2.79-1.67c11.44-3.41,27.52-4.81,40.34-4.81,7.19,0,12.03,1.03,18.78,2.58Z"/>
          <path class="cls-14" d="M566.85,425.69c-2.02-.75-2.54-7.47-2.79-7.81-.07-.1-1.68,1.13-2.22-.28-.64-1.68,1.55-1.14,1.11-2.22-.51-1.23-2.58-1.3-3.06-1.93-.25-.34.31-3.36-2.23-3.94-2.98-.67-1.56,1.64-2.24,1.69-6.16-1.22-1.2-4.26-2.5-7.82l4.45,4.46c-.07-1.19-.18-3.04-.68-4.07-.42-.86-1.43-.88-1.74-1.62-.62-1.5.12-3.53-1.47-4.62l2.21.28c.22-.34-1.76-4.1-2.21-4.75-.88-1.26-2.72-1.02-2.25-3.05-.96-.26-.15,1.71-1.38,1.11-1.34-.65-1.79-4.44-3.91-5.01l.28,3.34c-1.39.51-3.29-.25-3.79,1.51-.1.35-.14,6.2-.05,6.51.2.65,1.17.71,1.42,1.09.41.64.35,1.45.99,2.1s3.09-.01,3.72.84c.86,1.17.23,3.9.63,5.39.13.5,1.57,4.18,1.86,4.84.43.97,1.7,1.44,1.93,3.1.28,2.08-1.98-.09-2.24-1.12-2.94.88.86,3.49,1.14,5.55.33,2.38-.07,4.41-1.7,6.17-.74.63-.97-1.34-1.42-1.94-.38-.52-1.47-1.88-1.93-.58-2.95.37-3.3-5.62-.47-6.48-.42-.47-.63-1.05-.63-1.68,1.38-4.87-1.99-5.25-5.31-2.56l-2.34-.77c1.47,4.96-8.18,2.16-6.7-.88,3.15-.33,3.82-.95.61-2.18-1.13,2.24-5.44,3.81-4.79.16-1.05-.55-2.13-.95-3.25-1.22-2.31.07-2.47-2.73-.72-4.01.07-.23-3.7-2.11-4.21-.95l-1.22-.98c-.2-2.31-.75-4.42-1.66-6.32-.66.38-.84.75-.56,1.12,3.57.79.43,3.38-2.38,3.2-.97,1.11-2.22,1.9-3.75,2.38l-.45.64c-1.32-.42-2.66-.82-4.01-1.19-1.31.72-2.21.92-2.7.6-5.68-7.85-13.97-14.44-22.79-18.65l-.72-1.48c-1.48-.15-1.42-.69,0-1.12.67-.55,1.41-1.11,2.23-1.67-.81-.19-1.59-.55-.55-.67-3.64.39-4.04-4.31-.25-4.41-7.25-4.02-1.13-9.23,2.76-2.9,3.42-2.56,8.66-3.55,7,2.34,2.25.32,4.39,1.57,6.41,3.76,1.67-1.16,3.06-1.46,4.14-.91.81-.68,2.11-.87,3.9-.56-.13-1.07.73-.94,1.12,0l1.14.7c-.83,2.89.64,2.71,4.4-.54l1.15.95c.55-1.71,4.49-.59,4.46,1.12.51-1.01,1.76-1.03,2.23,0,.78-1.7,3.62-.52,3.9,1.12,1.07-1.59,2-1.59,2.79,0,.05-1.23.53-1.02,1.12,0,2.06-.13.52-1.26,1.48-1.69.7-.31,2.62-.26,3.54-.55l-2.23-1.12c.91-2.3,3.01-.11,4.18,1.12,1.14-1.36-.97-2.27-1.41-3.06-1.85-3.32-3.17-3.76-4.48-5.69-.52-.77-.44-1.93-1.34-3.02-.71-.86-2.46-.7-2.49-1.31-.04-.89,1.51-2.71.25-4.49-.86-1.22-5.19-3.46-3.64-5.29,24.92,18.64,39.23,41.28,46.29,71.94Z"/>
          <path class="cls-14" d="M489.33,337.02c.17,1.86-.35.83-1.37.53-2.03-.6-4.03-1.38-6.15-1.66.38,3.6-1.98-.48-2.33-.57-1.98-.54-1.93,1.07-2.1,1.07-2.88-.09-3.93-1.64-5.34-3.84,5.88,1.35,11.56,2.59,17.29,4.46Z"/>
          <path class="cls-3" d="M405.12,338.13c1.1-.47,2.47-1.68,3.9-2.23-.19,2.21-2.04,2.44-3.9,2.23Z"/>
          <path class="cls-2" d="M523.9,407.29c2.82.09,5.26-.47,3.91,2.79.9.24.33-.75.68-.97.57-.36,1.4.05,1.97-.27.34-.2.36-1.26,1.03-1.5,1.87-.66,2.44,1.31,3.37,1.48.42.08,1.25-.5,1.31-.42,1.29,1.71-3.46,3.57-5.01,3.07l6.13,1.95c-2.16-5.65,3.46-1.87,3.91-2.24l-.55-2.22c2.62.68,4.22,2.08,2.23-1.67.89-.63,3.87,3.61,4.19,4.49.49,1.34-.52,2.27-.22,3.47.1.4,2.95,2.99.76,3.18-.14.01-1.38-2.03-1.88-.2-.58,2.15.04,3.08,1.04,4.67,4.81,7.6,4.78,8.2,5.04,17.54,1.98,70.18-65.26,122.22-132.74,100.4-2.16-.7-17.15-6.66-17.58-7.52-.42-.84-.1-2.07-.55-2.82-.35-.58-1.28-.42-1.4-.53-2.83,1.1-4.3-4.57-1.12-5.02,1.16-2.24,4.89-.24,2.23,1.12.9.33,1.83.51,2.79.56,1.85-1.38,2.77,2.27,1.12,2.79.46.8,1.14,1.43,2.04,1.9,1.31,3.04,2.14.24-.24-.61l-.12-1.28c-2.01-.66-1.1-2.76.51-3.79-2.23-1.82-2.69-3.59.61-4.29-.34-3.09,2.82-3.15,5.12-2.13-5.99-5.42-.14-7.99,5.18-3.89,2.73-.4,7.08-.85,5.25,3.12,5.02,1.71,6.5,4.13,4.45,7.24-1.08.19-4.2,2.89-4.14,3.17.67,3.16,2.71,7.98,6.59,6.75l.88.52c-.34,2.29,4.22,4.2,3.97,1.09,1.65-2.04,5.7-.62,7.93.21.34,0,.73-.15.81-.52.43-1.91,1.07-4.75,3.35-5.35l-.03-.91c-4.93-1.39-.58-6.89,3.03-6.25,2.68-.67,2.38,1.19.36,3.02-.12.11,1.14.31,1.41,0,.21-1.79,1.75-3.29,2.69-1.34.93,1.69,1.81,3.44,2.62,5.25-1.28.6-1.75,1.9-.39,2.55,1.09.33,3.05-.02,3.6-.8.15-.22-.48-3.97-.62-4.52-1.91.54-3.28-.66-4.09-3.6-5.72,1.19-2.52-4.76,2.23-1.67.13-.53.69-.53,1.67,0l.74-.22c1.6,2.43,2.69,2.08,4.77.28,3.68,2.59,7.71,1.79,11.8.17,35.74-14.09,58.43-44.58,56.84-82.96-1.81-1.87-1.99-3.1-.54-3.71.32-2.12,1.42-3.5,3.3-4.15-1.68-2.22-3.33-4.36-4.97-6.44-1.23-.39-1.07-1.18-.06-1.92-1.1-5.27-3.08-10.26-5.95-14.97-2.05.15-3.38-1.55-1.25-2.08Z"/>
          <path class="cls-21" d="M339.31,425.13c.28.62.39,1.54.56,2.23l1.11-2.23,1.66,1.67c.07-1.22-.02-4.06,1.95-3.34,1.69.61-1.33,4.92,2.51,4.46-.01-1.32.85-2.88.6-4.17-.12-.6-1.31.08-1.73-.66-.64-1.15-1.83-4.21-1.64-5.43.49-3.19,2.16-2.79,3.32-3.96.85-.85,1.04-3.19,2.79-3.62.86,2.24-.5,5.32,2.23,5.29-.44,1.83-3.81,4.09-4.21,4.75-.09.15-.13,3.38-.09,3.55.24,1.06,1.9,1.89,2.63,2.58,2.12-.61,2.45.73.98,4.02,1.44.98,2.86,4.31,1.25,5.46,2.07,2.28,3.02,4.64,2.87,7.09l-.54,7.62c1.11,1.45,1.27,2.49.46,3.13,2.26,2.52,2.5,4.26.71,5.22.76,1.44.71,2.49-.16,3.14-.16,3.31.82,6.48,1.95,9.56l1.88.36c3.76,15.76,14.63,31.37,26.65,42.19l.61,1.55,11.45,7.6c.73.9.39,1.36-.71,1.76-.65,2.56-1.63,2.31,1.12,5.02,0,1.82.63,1.53-1.13,1.41-2.23-.14-5.27-.35-6.74-2.24-.46-.6.1-1.34.05-1.38-.26-.16-1.5,0-2.22-.29-1.04-.42-2.73-1.87-3.79-1.25-.15.09-.2,1.85-2.54-.12-.62-.52-1.39-3.21-1.51-3.36s-1.26.43-2.04.13c-1.06-.4-2.09-2.22-2.75-2.33s-2.62,2.08-5.23.78c-.32-.16-2.17-2.6-2.47-3.12-.87-1.47-1.79-2.86-2.77-4.46-.45-.74-.88-3.35-1.56-3.73-2.14-1.19-5.99,1.16-6.03-4.58-1.45,1.38-1.51-1.59-3.06-2.23-1.05-.43-.91,2.35-1.94,1.11-.17-.21.17-1.49,0-1.68-.23-.25-1.61.85-2.25.34-.74-.59-1.24-6.99-3.6-3.12-1.79-1.13-1.89-3.53-2.84-4.97-1.25-1.89-4.36-4.78-5.24-7.03-.46-1.17,1.38-.97,1.87-.83.65.18,0,1.36.91,1.12-.28-2.64-1.52-5.08-1.1-7.8l1.66-.27c-1.15-1.67-1.44-3.17-3.62-3.62-1.56,1.04.48,1.93.29,3.58-.14,1.17-1.66,2.18-.57,4.21-1.67.41-1.01-1.3-1.68-2.39-3.96-6.53-2.01-8.37-3.45-14.5-.25-1.05-1.3-1.75-1.45-2.47-.27-1.27.95-4.34.83-5.94-.08-1.14-.87-2.35-.98-3.98-.04-.64-.12-5.61.08-5.82s1.54.32,1.67-.33c.15-.76.12-4.69-.05-5.44-.11-.47-.93-.44-1.12-.79-.78-1.41.79-10.89,1.25-13.13.18-.87.99-1.66,1-2.63l2.78,1.67c.16-.22-1.33-3.71,1.12-3.35Z"/>
          <path class="cls-4" d="M374.72,526.75c1.13-.1,6.31,4.89,4.21,6.32-2.75,1.87-7.91-5.99-4.21-6.32Z"/>
          <path class="cls-26" d="M337.64,423.46c-.29-.11-1.04.34-1.14-.35-.38-1.55.59-7.02,2.81-5.78.12.07-.48,2.41-.56,2.78-.25,1.15.1,2.31-1.12,3.35Z"/>
          <path class="cls-13" d="M424.64,346.5c19.19-4.17,35.19-5.99,54.66.27,2.54.82,5.89,3.35,6.48,3.54,1.18.39,2.87-.1,4.28.2,1.54.34,2.16,1.98,3.74,2.12.93.93,1.29,2.39,1.08,4.36,1.2,2.12,3.56,3.76,7.07,4.91,3.52,3.8,5.71,5.23,10.97,5.03,1.87-.03,2.94.59,3.19,1.87,4.69,1.55,9.1,5.17,10.6,10.04-.32.02-.88.07-1.12,0-.87-1.53-1.8-1.53-2.79,0-1.04-.15-2.36-.88-3.9-1.12-.82-.68-1.56-.68-2.23,0-1.66-.26-2.99-1.12-4.46-1.12-16.39-14.29-37.38-22.94-59.24-23.72-.16.81-.68.94-1.54.85-1.01.57-2.31.57-3.9,0-4.47-1.44-10.14-.3-14.8.82-12.29,2.94-25.35,7.28-35.15,15.39-1.11,3.56-2.63,4.64-4.54,3.24-1.23,0-7.56,6.81-8.53,8.43.85.6.47,1.68-1.16,3.24l.6,1.22c.77.66.59,1.4-.56,2.23.51.83.05,1.55-1.4,2.15-.5,4.8-2.05,5.01-3.81.63-2.1-.3-6.55,12.59-6.47,14.66l-1.62.88c-6.05-.26-9.77,7.5-6.45,12.58,3.03-.56,3.47,2.79.77,3.91-.05,1.2-.42,2.32-1.08,3.37,1.41,2.87,1.7,4.97-1.88,6.1,4.71.51,1.76,9.24-1.09,4.48-3.09,3.33-5.54,3.11-7.07-1.36-.41-1.26-.58-2.65-1.17-4.02-.26-.6-1.53-.24-1.05-2.34.46-2.05,1.97-1.23,0-3.12-.66-3.98,1.61-7.4,2.63-11.04,2.49-8.87,2.8-8.71,7.09-16.33,2.43-4.32,2.59-9.32,7.02-13.61.54-.52.71-1.07,1.66-.84-1.76,1.44-.57,5.56.86,3.35.62-.96-.79-5.12.54-7.22,10.5-11.88,23.71-23.46,38.55-29.53,1.01-.41,1.86-.81,3-.62-.83,2.46.45,3.36,3.85,2.69l.61,1.21c1.29.44,2.04-.04,2.79-1.12-.38-.98.11-1.52,1.47-1.64l1.62-2.11c1.15-.43,1.8-1.41,1.94-2.94Z"/>
          <path class="cls-4" d="M493.79,352.63c.1-1.03-.15-3.25,0-3.34.23-.15,1.24.1,1.69,0-1.99-6.38-.13-1.75,3.62-.5.58.19,1.66.27,1.95-.05.82-.93-1.99-2-2.23-2.51-.21-.45.73-.11.93-.46.58-1-.5-1.87,1.85-1.48.28.98-1.34.27-1.11.83.4,1,3.66.31,5.29.81,1.13.34,7.46,3.51,7.48,4.21,0,.37-1.29.8-.8,1.4,1.01,1.24,7.53,4.11,5.87,6.13-.1.12-1.91-1.76-2.78-.28,4.13,2.53,3.32,4.59,3.34,8.65l-1.67-.55c.76,1.72-.21,2.06-1.12,3.34-3.05-1-5.25-.88-8.03-1.17-3.35-.35-3.96-2.76-6.19-4.41-5.71-4.21-9-1.21-8.08-10.6Z"/>
          <path class="cls-26" d="M424.64,346.5l1.67,3.34c-3.24-.94-3.43,1.78-4.63,2.64-.25.18-1.35.38-2.06.72.25,1.6-.68,1.97-2.79,1.12-1.45-.35-4.59.09-5.05-.23-.28-.2-1.11-2.38-1.03-2.49.06-.08,1.08-.71,1.62-1.18,3.21-2.84,6.24-3.52,10.4-4.42.78-.17,1.77.54,1.87.52Z"/>
          <path class="cls-28" d="M425.2,384.98c-3.76-1.03-1.72-7.6.11-9.7.58-.66,7.49-3.96,8.45-4.07,3.88,1.31,4.54,1.06,6.43-2.83-3.28,1.4-5.67,1.1-7.15-.89-2.67.96-2.76-4.02-2.1-5.34,1.17-2.31,6.21-1.39,8.15-.58.96,3.13,3.38,5.67,1.38.97,1.75-2.68,4.78-3.56,6.31.19,1.96.33,3.55,1.92,4.78,4.79l2.76.24c1.98-1.15,4.04-.83,6.17.95,2.94-.41,4.48.65,4.62,3.19,2.52.64,5.24,1.67,6.25,4.27,2.22,1.98,4.68,3.8,7.37,5.47,7.6,2.74,16.52,10.3,22.03,16.17,1.47,1.56,1.5,4.04,4.18,3.35-.37,1.69-.03,2.56.73,4.26l.59,4.93c2.15,2.7,2.23,5.03,1.37,7.93,5.62-3.95,5.46,9.64.99,6.46-1.23-3.35-2.73-4.74-1.78.17l-1.36.23c-1.47,2.99-6.39-1.29-4.12-3.72,0-.27-3.81-3.26-4.33-3.33-.48-.06-8.49,3.4-8.84,3.72-.57,3.97-4.6,1.8-3.74-1.5-.91,1.54-2.15,1.28-3.73-.77-2.07.77-3.32.21-3.16-2.17l-3.44-1.12c-2.48-4.36-5.93-7.17-10.37-8.43.66-2.02-2.36.17-1.85,1.27,1.82-.25,3.89.84,2.45,2.67-2.24,1.47-3.87,3.01-1.38,5.03l-.06,1.52c3.33,2.97.42,5.11-2.87,5.77.05,1.19-2.13,2.74-3.27,3.33l-1.96-.06c-.61,3.39-3.33,3.97-8.15,1.75-.33.08-3.16,1.84-3.28,1.99-.29.34-3.58,7.83-3.55,8.28.72.59,1,1.47.82,2.63,1.65.55,8.28,3.88,9.07,5.01,1.88,2.68.9,8.52-3.48,6.73.13,1.96-.08,4.43-1.77,5.69,1.67,3.96.84,7.76-3.83,8.19,0,3.47-1.11,4.59-3.35,3.37-.56,2.7-2.26,2.31-5.11-1.16-2.87-.68-5.59-2.05-8.15-4.12-5.69-.9-6.91-2.33-3.68-4.29.17-1.83.66-3.61,1.41-5.3-1.22-2.87,2.17-6.55,5.18-4.68.09-.38.24-.87.56-.97,2.47-.73,4.54-2.47.89-1.1-2.47.18-2.78-1.42-.93-4.81-5.48,2.47-6.14-5.1-1.67-5.53.16-.02-1.98.96-2.57,1.01-1.5.13-4.95-1.25-4.89-2.77.02-.57,6.51-7.87,8.05-6.96l2.81,1.09c.18-1.46,2.51-4.43,3.62-5.16l1.1-.06c-.85-2.48.14-5.07,1.16-7.33-5.44-5.08.32-4.55,4.64-3.61-5.43-1.76-6.14-3.41-2.12-4.94-1.55-1.57-2.59-3.31-3.12-5.21-1.52-1.29-2.55-2.43-.98-4.27l-2.68-1c-.72-1.92-3.74-2.72-5.04-1.48-5.12,1.62-6.58-10.17-.77-6.62-.41-1.58-.11-2.72,1.12-3.85-1.34-.93-1.67-1.89-.96-2.88Z"/>
          <path class="cls-10" d="M504.94,401.15c3.88-2.28,1.75-.22,4.46.56.22-1.2,1.18-1.36,2.21-.93,2.53,1.05,8.22,12.11,9.06,14.99.97,3.36.88,4.77-.67,7.68.44.53.12.67-.56.56.04.75.86.94,2.44.56l.35.55,1.08.81c-.39,1.62-.16,3.03.68,4.23-.64,1.49-.3,2.97,1.02,4.44,1.52,5.85,1.32,13.71.51,19.9-3.67,27.85-24.87,53.72-51.72,61.99-1.97.61-6.4,1.63-7.34-.47-1.42-.1-2.35-.47-2.79-1.12-.79-.62-1.1-.96,0-1.12.89-.92,2.38-1.05,4.48-.38.18-2.86,2.37-5.32,4.72-6.38,1.15-1.82,2.54-3.2,4.18-4.13-.19-1.72.68-3.01,2.61-3.88-1.13-.96-2.31-2.48-.94-3.63l.9-1.79c22.95-14.46,33.19-41.37,25.28-67.34l.59-1.14c-.02-.1.54-.66.4-1.28-.12-.56-.93-1.04-.99-1.76,0-.1,1.39-1.43,1.49-1.44,2.5-.31,2.7,3.13,3.01,3.37,1.91,1.45,1.45-4.01.85-5.03-.84-1.44-1.92.66-2.73.53-.58-.09-1.44-1.5-2.02-1.91l1.68-.28c-.76-1.03.08-2.16-.04-3.04-.17-1.26-1.58-2.33-1.94-3.63-.43-1.57-.23-3.26-.61-4.97-.22-1.03-1.74-3.42-1.3-3.95.06-.07.99-.19,1.65-.58Z"/>
          <path class="cls-1" d="M445.83,355.42c1.67-.77,3.13,2.08,2.21,3.51,0,.29,4.83.85,5.67.94.58.06,1.05-.16,1.46-.59-1.54-1.22-1.37-3.54.69-2.74l.73-1.3c5.8-.03,13.66,1.42,19.32,2.96,2.93.39,5.07,1.66,6.41,3.82,1.17-.61,2.67-.53,2.94.84,3.52.79,7.07,1.86,10.26,3.63,1.14.63,10.1,6.63,10.49,7.14.72.96.68,1.36-.5,1.88-.34-.06-.84.09-1.12,0-1.62-.23-2.92-.05-3.9.56-.61.54-3.55,2.04-4.17,2.01-2.14-.1-3.35-2.97-4.19-3.4-.89-.45-2.54-.06-3.12-.81-.76-.99,1.34-3.29-.59-3.89-1.97-.61-4.98,2.42-6.03,2.18-.72-.17-1.16-4.26-4.76-2.78-.05,2.64,4.9,2.9,3.62,5.58h-2.5c-.42,3.14,1.55,2.37,2.16,2.84.28.22-.02.82.07,1.06-.8.51-1.54,1.07-2.23,1.67.09.29-.06.77,0,1.12-.07-.03-.76.56-1.31.43-1.4-.34-1.35-2.77-3.71-.43l.28-2.79-1.12.56c-.76-.73-1.52-1.45-2.18-2.28-1.54-1.91-.82-3.46-3.67-2.18.56-2.55-1.34-1.23-2.57-2.17-1.05-.8-.63-2.66-.8-2.83-.14-.13-2.52.07-3.46-.17s-2.93-1.88-3.49-1.87c-.33,0-1.17.84-2.21.95-6.03.63-4.48-3.32-6.09-4.57-.79-.61-2.15-.29-2.48-.61-.22-.21-.11-2.25-2.61-2.67-.12-.02-.5,1.73-1.93,1.12v.55c2.26-.22.47,2.44.55,3.91-2.38.58-2.55-2.58-2.81-2.78-.34-.26-3.9,1.28-3.87-.29.02-1.32,3.14.47,3.33-1.39-3.05.38-5.29-1.78-7.25,1.39l1.13.56c0,1.26-3.16,3.26,2.21,1.95-1.26,5.35,5.87-.88,6.69,1.98.11,1.35-2.6,4.9-3.73,5.19-1.27.32-2.46-1-3.7-.89-.43.04-7.56,3.48-7.87,3.79-1.01,1-1.9,5.02-1.98,6.47-.05.99.92.64,1.1,1.15.16.46-.08,1.11.01,1.27-.85,2.32-2.15,3.99-3.9,5.02-1.61,1.49-1.8-.24-.56-1.67-.09-1.33-1.59-.18-1.12,1.12.66,2.1-1.11,2.88-5.32,2.35l.3.99.07,1.36c-2.17.11-3.49,1.52-3.97,4.21.25,2.48-3.26,2.92-3.71.01-2.05-.64-3.79-1.58-5.21-2.8-.78.52-1.92-.23-1.87-1.05.07-1.12.53-3.36,1.03-4.36-1.12-1.16-1.63-2.95-1.1-4.47-1.31-.27-2.33-.64-3.24-1.77-.43,2.17-3.81,2.65-5.36,1.3l-5.08,1.98c.6.68-.31,1.63-1.12,1.12-.47,1.41-1.29,1.48-1.67,0-1.17-.2.1-1.69.56-2.23-.87-1.54,1.15-3.99,2.79-3.35-.07-.34-.12-.67-.1-1,.16-2.85,15.21-12.73,18.43-14.64,13.34-7.9,24.89-11.62,39.79-12.45l.99.77Z"/>
          <path class="cls-1" d="M516.1,395.02c.11-.03.73-.9,1.11-.56.42.37,1.72,6.14,1.69,7.25,2.16-2.16,2.26-.16,3.88.31,1.65.49,3.66-1.13,3.36,3.03l-1.12-1.67c-2.66,1.67-2.08,1.67-1.11,3.91.11.25-.12,1.01,0,1.12.16.14,1.58-.84,2.22-.56,0,3.57,2.31,4.91,3.62,7.82.59,1.32,2.9,8.61,2.42,9.37-.48.75-.82-.28-1.01,1.22,2.09.9.69,3.42-1.41,3.21-.88-.09-4.24-3.57-4.37-4.3.39-2.62-1.41-3.19-5.38-1.7-.32-1.69.46-3.46.31-5.05-.23-2.52-7-15.87-9.08-16.6-.65-.23-1.41.02-1.83-.1l.56-2.79c2.31,2.07,1.37.15,2.65-.55.86-.47,3.31-.44,3.48-.57.1-.08-.52-1.16-.56-1.67-.95-.73-.77-1.1.56-1.12Z"/>
          <path class="cls-31" d="M451.41,353.75l.91-2.28c6.69.68,13.29,1.4,19.84,3,13.33,3.25,28.9,10.67,39.01,20.11.7.66,1.42.42,1.02,2.03-2.88,0-3.4,3.54-5.79,2.75-1.43-.48-.73-2.77-.9-3.86-.08-.53.03-1.05-.57-1.36-3.76-1.4-7.11-5.08-10.39-6.92-2.85-1.6-6.78-2.54-9.83-3.45-.49-.15-.41-1.09-.73-1.1-.53-.02-2.08.93-2.45.56-.77-.77.41-1.75-3.27-3.15-3.32-1.27-6.57-1.32-9.73-1.98-4.52-.95-7.76-2.82-12.68-1.54-2.7-.17-4.18-1.1-4.46-2.79Z"/>
          <path class="cls-13" d="M511.85,382.92c.18-.28.87-.15.9-.18.3-.42-1.82-1.24-.56-1.95,2.27-1.27,5.03,1.47,4.44,3.29-.11.34-4.07,2.75-4.7,2.57-1.35-.38-.63-2.86-.08-3.73Z"/>
          <path class="cls-28" d="M507.69,382.71c-.08.14-2.58,1.92-2.75,1.71.49-1.92-.75-2.83-1.12-4.46,1.15-.45,4.58,1.59,3.86,2.75Z"/>
          <path class="cls-28" d="M514.43,391.67v-2.78c-.69-.44-.52,2.24-1.4.56-.4-.76-.04-1.55.57-1.67,1.23-.25,5.34,4.36.83,3.9Z"/>
          <path class="cls-28" d="M515.54,396.13l-2.79-1.11,1.68-.29-.28-1.95c2.57.39-.33,2.79,1.95,2.24-.1.32-.57.88-.56,1.12Z"/>
          <path class="cls-31" d="M504.39,375.5c-.99,1.5-2.41.51-3.9.56.13-.11,0-1.43.87-1.61.93-.2,2.23.77,3.04,1.05Z"/>
          <path class="cls-28" d="M480.96,378.84c.58,1.56,1.17.78,1.11,2.23l-3.34-.55c-.8-2.56-.23-2.11,2.23-1.67Z"/>
          <path class="cls-3" d="M525.58,378.84c-.58-.17-1.08-.99-1.4-1.11-.49-.19.21,1.34-1.39,1.11l1.39-2.22,1.39,2.22Z"/>
          <path class="cls-31" d="M516.65,377.73c-.11-2.24,2.47-1.75,2.23,0-.53-.08-1.19.16-2.23,0Z"/>
          <path class="cls-18" d="M386.16,387.21c.09-.12-.27-.73.34-1.16.23-.16,4.76-2.07,5.08-2.13,1.01-.18.6,1.05,1.03,1.08.15.01,2.86-.55,2.99-.62.07-.04-.66-1.24.33-1.62,1.48-.33,1.93,1.28,2.89,1.56.3.09,6.51.53,4.63,2.34-.75.72-1.83-2.07-2.77-.29.38,4.18,1.59,2.56,2.21,3.08,1.12.92-1.62,1.49-1.66,1.95-.08.9,1.64,1.25,1.66,1.95-3.36.4-1.78.75-1.11,2.24,3.59,1.72,2.89,4.17.64,6.78-8.11,7.88-12.2,18.37-14.55,29.2-.23,1.06-.69,2.13-1.17,3.11.34,3.72-.22,7.43-1.43,10.92l-1.89.18c1.3.86.9,1.47-.56,1.67.94,1.56,1.4,2.76,1.44,4.6,3.33,1.16,3.63,3.27,3.38,6.54,1.22.8,1.84,1.92,1.86,3.36,2.53-1.65,6.27.15,3.95,3.55,2.92.83,5.6,3.11,7.69,5.27,4.75-4.86,8.76.95,2.91,3.03.77,2.16-.37,3.23-3.4,3.21.58,1.69-4.57,4.46-5.21,1.92-.89.27-1.56.12-2.37-.31-.32-.17-3.55-3.93-3.76-4.35l-1.13-.05c-1.77-2.23-2.33-1.9-1.66,1.01-2.53,1.59-2.96,3.44-1.26,5.53-.72,1.93-.51,3.52.61,4.78l-.25,1.62c2.02-.12,4,.47,5.99,1.28,1.08-1.58,2.9-1.66,5.48-.24l-1.23-3.9c-2.59-2.07-.41-5.9,1.46-2.83l1.39.25c4.35,6.03,9.71,11.34,16.08,15.93-1.65,1.58-1,2.83,1.94,3.74l.11,1.27c.77-.94,1.63-.7,1.67.56,2.33-2.83,7.81-2.2,8,2.26,2.99-4.29,9.14.84,11.07,3.85,1.08.39,3.26,1.28,2.12,2.25.08.26.14.52.12.78-.03.33-3.43,2.49-4.02,2.57.38,1.57.46,3.13.25,4.7,2.05.73,3.98,1.71,5.78,2.92,2.45-1.85,7.46-1.25,7.91,1.86.44,2.14-2.11.59-2.74,1.2-.16.15.08,1.04-.2,1.41-.41.54-2.47.98-.8,2.3.31.24,1.18-.09,1.57.45.51.7.1,2.4.5,3.27-.34.78-1.94-.57-2.23-.27-.06.06.02,1.08-.32,1.62-.38.62-1.21,1.12-1.36,1.46-.17.37,1.75.5,1.67,1.39-1.59-.64-2.31,1.72-2.54,1.72-.68,0-1.52-.87-2.33-1.03-.74-.14-4.96-.85-5.15-.67-.31.29.19,2.98-2.39,2.68-.6-.07-3.76-1.2-4.06-1.58l.85-1.67c-1.91.05-3.8.24-5.33-1.09-.24-1.7-3.63-6.77-2.8-7.87.34-.44,1.45-.45,1.94-.86.53-.44.69-1.14,1.17-1.54.41-.34,2.1.27,2-2.33-.11-2.73-4.8-1.97-5.91-5.01-.17-.48,1.12-.04,1.13-.55.07-2.42-3.56-.65-5.06-1.04s-3.69-2.68-6.11-2.02c-.69,3.9,2.33,3.4,2.79,3.91.39.43-.72,1.42-.85,1.96-.08.36.44,1.25.29,1.38-.07.05-1.61.06-1.67,0-.39-.39,1.16-2.5-3.35-1.67-.59,3.14,2.3,1.2,3.34,2.78-2.68.4-4.07-1.23-6.13.57l2.77,1.94c-.64,1.65-3.42,2.15-2.22,4.18-.18,1.54-1.26,1.51-1.67,0,.29-.83-.42-2.21-1.12-2.79-.82.83-1.98.05-2.79-.56-.11-.23.14-.9-.02-1.11-.07-.09-1.65.53-2.21,0,.07-.27.09-.82-.07-1.04l-11.63-7.62c-.61-3.45-3.98-4.45-6.14-6.69-6.7-6.92-19.55-26.88-20.92-35.69-.06-.4.46-1.26.29-1.39-.7-.08-1.84.34-2.31-.32-.16-.24-1.56-4.99-1.63-5.51-.2-1.45-.1-3.43.58-4.77l1.35.53,1.88,5.75c.75-3.42,3.16-4.13,6.14-4.74-1.36-.63-2.42-1.54-1.53-3.07l-2.64-.66c-1.23-1.22-2.01-1.71-3.63-2.08-.22-1.85-.93-3.21-2.13-4.1.14-.49-1.4-1.88-1.52-2.59-.36-2.16.81-7.53.43-10.54-.13-1.04-1.23-3.28-1.7-4.71,1.34,2.57,2.44,3.44,5.24,1.62,1.38-.9,3.3-5.37,3.13.62,1.09.2,1.21-3.68,1.09-3.86-.23-.32-3.36-.25-3.31-2,.02-.82,3.25-.04,3.83-2.35.29-1.14-1.15-1.83-1.08-3.18.04-.78.76-1.6,1.01-2.42.21-.71-.05-2.05.19-2.33.23-.26,1.47.09,1.6-.04.06-.06.05-1.61,0-1.67-.14-.18-1.19.5-1.7.28-1.47-.64-2.44-6.62-1.97-8.11.11-.35,4.1-5.72,4.4-5.94,1.36-.96,4.28-.28,5.14-1.28.84-.97.45-3.38.84-4.69.6-2.01,3.36-7.87,4.7-9.29,3.21-3.39,3.64,2.38,3.93,2.25,1.59-.69.23-3.02.52-3.38.09-.12,2.42-1.58,2.55-1.64.32-.15,1.2.1,1.67,0,.85.46,1.55-.28,1.12-1.12Z"/>
          <path class="cls-1" d="M525.02,434.61c-4.06-5.19,4.34-5.37,2.38,1.06l4.78.03.64,1.14c-.35,1.71,1.4,2.25,1.66,3.63,1.31,6.74-1.39,21-3.38,27.83-7.66,26.34-30.09,49.17-56.3,56.91-2.31.68-5,1.3-7.4.73-1.17-.27-1.98-1.56-2.89-1.57-.51,0-.35,1.44-1.18,1.66-.73.19-1.71-.65-2.61-.43-.75.18-1.78,2.03-2.08-.38-.18-1.42,1.79-.14.56-1.95-3.56-.74-3.39-3.02.37-3.39-.83-.9-1.51-1.82-2.05-2.75-.06-.89.32-1.45,1.12-1.67l.84-.92,6.97,1.48c4.23.16,5.25.08,9.47-1.41,25.23-8.9,45.02-33.78,48.49-60.26.87-6.62.15-13.25.6-19.76Z"/>
          <path class="cls-19" d="M520,423.46c.35-.35.98-.41,1.33-1.1.21-.42-.26-1.1-.21-1.13,1.05-.65,4.29,1.91,3.91-.56h.54c-.5,2.01,1.8,2.26,2.23,3.07.18.33-1.36.5-1.67,1.12-.05.11,1.56.59,1.25,1.78,1.18-.1,2.32,2.14,2.92,1.84,1.03-.51.73-1.39.85-2.23,3.21.04,4.33,5.3,6.69,6.14-1.09,1.18-1.66,2.56-3.34,1.66v3.35c-.67.22-1.33-.52-1.68-.56-1.07-.12-5.84.17-6.07-.02-1.45-1.15,1.25-4.87-1.46-4.98-1.17-.05-.24,2.24-.28,2.78-1.77-.32-3.77-3.21-1.67-4.19-1.85-.45-1.12-3.43-1.11-5.29l-.54-.57c-1.57.4-2.32.22-2.25-.55.16-.21.37-.37.56-.56Z"/>
          <path class="cls-1" d="M441.93,516.59c.8-2.48,3.75.71,3.63,2.59l2.34.66c3.16-1.25,5.32-.91,6.49,1.04,2.17-.12,3.1.12,3.16,2.4-.22.06-.59.73-1.34.61-.23-.04-.76-2.82-3.12.23l2.23.83c1.14,1.13.33,1.79-1.12,1.12-.13.1-.76-.05-1.13.28-.57.51-.27,1.51-.95,1.96-1.23.82-3.55.32-3.51-1.4l2.22-1.12c-.4-.48-.56-1.02-1.1-1.4-.28-.19-3.95-2.02-4.18-2.03s-4.4,1.06-3.64,2.02h-.54c-.05-.99-4.17-3.4-5.08-3.61s-1.36.21-2.18.27c1.39-1.98.58-3.61,1.67-6.13l1.18.27c.94,1.45,2.59,1.92,4.95,1.41Z"/>
          <path class="cls-22" d="M441.93,516.59c-1.91,1.3-3.37-.55-2.36-2.5,1.35-2.62,4.08-.8,5.3,1.07,1.13-3.97,6.01-2.52,8.26.2,2.56-.14,4.03.45,4.42,1.78,1.92.6,2.89,1.02,3.28,3.14.3,1.64-2.3-.06-3.28,1.61-.59,1.01.91.28,1.67,1.39-.52.08-1.22-.11-1.67,0-1.35-2.22-4.29-.92-4.46-1.11-.1-.11.12-1.44-.53-1.99-.71-.6-3.31.9-4.15.87-1.24-.05-3.09-1.18-4.77-.82l-1.16-1.4c2.1.29,1.74-.33,1.68-2.23-.71-.1-1.58.13-2.23,0Z"/>
          <path class="cls-18" d="M455.31,524.96c.39-.19,2.11-.68,2.23-.55-.39,1.24-.43,2.11,0,3.34l4.45-1.11c.21.86-.79.33-1.09.96-1.39,2.97.5,3.69.43,4.8-.17,2.85-3.17,2.05-4.92,1.49q.8-1.47,0,0c-1.17-.38-1.2-.91-2.22-1.13-.5-.63,1.62-.81,1.66-1.38.02-.29-3.11-3.53-1.66-5.3.48-.38,1.04-1.08,1.12-1.12Z"/>
          <path class="cls-9" d="M406.23,529.42c.83.23,2,1.46,3.34,1.12-.97,2.07-1.18,2.72-.84,5.02-1.99-.13-2.19-2.74-3.07-3.62-.66-.66-2.15-.76-2.22-.85-.62-.86,1.08-1.56,1.11-1.67.51.08,1.24-.12,1.67,0Z"/>
          <path class="cls-9" d="M403.45,526.63l-.56,1.67c-1.34.24-1.73-1.22-2.23-2.23,2.07-.94,1.76-.3,2.79.56Z"/>
          <path class="cls-13" d="M356.04,453.57c2.31-1.78,2.72,2.49,2.79,3.9,3.19-2.63,1.51-.02,3.09,1.08.97.68,2.52.41,3.61.85,1.19.65-.6,1.82-.56,2.25,6.31,3.06-.7,2.82-2.56,4.14-1.37.97-1.48,3.89-2.75,5.05-.44,0-2-5.57-2.29-6.52-.26-.82-.57-1.77-.77-2.4-.22-.7-1.17-3.34-1.15-3.58.05-.58,2.13-.62,1.7-1.71-3.26-2.64-1.38-2.18-1.11-3.08Z"/>
          <path class="cls-18" d="M367.19,501.54c.19.77-.08,2.78-.83,2.77-1.16,0-1.21-3.24.83-2.77Z"/>
          <path class="cls-31" d="M447.5,353.75c.64,1.31-.45,2.08-1.67,1.67-.84.9-12.04,1.41-14.09,1.8-14.06,2.66-35.51,14.8-45.02,25.52-1.13.28-1.96.14-2.23-1.12,0-.15-.86-.56-.31-1.63.23-.46,6.76-7.01,7.25-7.31,2.75-1.67,2.59.67,2.82.58,2.26-1.62.93-2.79,3.12-4.69,9.27-8.05,31.53-15.48,43.74-16.49,1.61-.13,6.43-.83,6.4,1.66Z"/>
          <path class="cls-27" d="M447.5,353.75c2.84-1.76,1.71-1.01,3.9,0,1.72.79,2.82,1.91,5.02,1.12-.26.55-.42,1.07-.56,1.67-.03.11-.85.54-.55,1.33.41,1.1,3.02.51.58,2.32-1.84,1.37-2.45.69-4.49.25,1.48,2.82-1.9,2.44-1.12-.56l-5.01.56,2.21-2.56-1.65-2.45c.69-.74-.18-.52,1.67-1.67Z"/>
          <path class="cls-25" d="M386.72,369.93c-.94,1.87-.67,2.21,1.11,3.06-1,.77-4.49,3.52-5.57,2.83-3.84-2.48,1.32-6.4,4.46-5.89Z"/>
          <path class="cls-27" d="M386.72,382.75c-.88.99-1.9,2.3-2.79,3.35-4.57.31.56-4.12.56-4.46.97-.1,1.94.09,2.23,1.12Z"/>
          <path class="cls-3" d="M407.2,355.06c.11.07.14.89.51.95,1.29.2,2.92-1.42,3.55.52-1.81.1-1.14,2.12-2.93,1.58-3.26-.99-3.38-4.54-1.13-3.05Z"/>
          <path class="cls-3" d="M419.62,353.19l.55,2.23c-1.33.45-2.58-.93-3.34-1.11,1.27.25,1.91-.7,2.79-1.12Z"/>
          <path class="cls-30" d="M425.2,384.98c.71,1.29,2.11,2.35,2.19,2.54.63,1.54-.93,1.22-1.27,2.06-.58,1.45.92,2.79-.64,3.75l-2.5-1.66-1.13,1.95c2.03.37-.1,2.72,2.04,3.54,3.07,1.17.69-1.07,2.14-2.14.87,2.18,1.44,1.1,1.83,1.28.16.07.03.97.41.97.26,0,3.34-1.55,3.61-1.14.51.77-1.02,1.61-1.01,1.95.03,1.32,3.56,1.32,3.8,2.25.29,1.08-.99,1.88-.99,2.23,0,.38,1.38,1.31,1.79,1.98.37.61.21,1.72.58,2.21.52.69,1.78.41,1.96.57.15.14-1.53,2.76,2.23,2.2.89,1.88-5.48,1.78-3.91,3.34.42.42,5.3.17,4.46,3.35-2.86.69-4.29-1-7.24-.55.96.97,1.81,2.5,3.35,2.23-1.18,1.78-2.58,5.38-2.08,7.46.38,1.58,2.74,1.14,3.2,2.57-1-.07-5.02-.93-5.51-.48-.17.16-.04,1.14-.38,1.54-1.1,1.33-2.58.71-1.37,3.4-1.72.86-4.19-1.31-5.18-1.06-1.26.32-4.62,5.16-6.52,5.8,1.48.88,4.19,3.24,4.72.83l2.52,1.12c-4.18,3.06-2.41,7.06,2.23,3.34.27,2.45.08,3.84-1.67,5.57,2.14,1.07,2.01-.98,3.9-1.11,2.08,4.74-2.23,3.85-2.79,4.46-.15.16,1.12,3.08-.83,3.89-1.66-1.86,1.32-3.21-2.82-3.27-.16,0-1.8,2.37-1.83,2.52-.2.93.86,1.6,1.03,2.16.09.27-.87.16-1.08.68-.48,1.18-.63,2.82-1.15,4.04.49.45,4.11-.94,3.9.83-1.11,1.51-2.55.68-3.89.56-.73-.07-1.89-.96-1.67.56,1,1.19,2.13.3,3.62.8,2.29.75,4.85,3.03,7.01,4.2.84.45,1.95.16,2.74.61.23.13,4.87,5.57,3.06,1.95-1.27-2.52.28-2.54,2.53-3.91.78.95-2.98,3.6,1.12,3.34-2.15-4.96,3.67-4.16,3.86-4.49.11-.18.68-3.72.66-4.16-.08-1.22-1.3-2.29-1.18-2.77.14-.53,1.39-.66,1.57-.93.09-.14.58-2.54.66-3.02.12-.65-.62-1.39-.28-1.92.49-.76,3.2-.27,4.19,0,.73-7.04-.55-5.5-5.18-7.95-.7-.37-.84-1.23-1.39-1.52-2.04-1.08-3.53.67-2.92-3.36l-1.66.56,4.63-10.43c1.2-.46,2.83-2.28,3.98-2.34,1.66-.09,5.25,1.61,5.54,1.56,1.62-.24,1.36-3.14,1.49-3.27.32-.33,2.88.3,3.29-.08.44-.41-1.02-2.69,2.26-1.06-1.41-3.14,3.58-2.13,3.93-3.71.63-2.84-1.92-2.13-2.26-2.43-1.19-1.07,1.57-.88,1.11-1.94-.26-.59-2.22-1.91-2.22-2.24s1.71-1.36,1.97-1.97c.64-1.5-2.01-1.52,2.48-1.93-1.83-2.11-5.16,1.37-5.57-2.51.66-.28,2.09.68,2.22.55,1.1-1.09-2.34-1.46-1.67-2.78.89-.36,2.8.76,3.26.5.12-.07,1.24-2.27,1.21-2.44-.41-2.33-3.95.66-4.19.66-.2,0-3.02-1.65-3.47-1.94-2-1.29.1-1.1,1.23-1.79,2.3-1.42,4.17-2.34,6.98-2.8-1.97,4.32,1.6.22,2.23,3.06.32,1.76-1.73-.26-2.23.28-1.1,1.18,1.67,2.32,1.71,2.55.23,1.42-1.23,1.93-1.71,3.02,3.44-.19,4.71,1.24,6.9,3.42.69.69,3.41,4.47,3.67,4.66.91.65,3.16.59,3.67,1.39.45.71.12,2.07.26,2.25.07.1,1.31-.78,2.38-.49.71.19,2.35,2.47,2.63,2.16l-2.22-3.63c.23-.66,3.53,1.2,3.64,1.37.84,1.26-.78,4.58,1.93,4.48v-2.79c1.7,1.13,2.23-.11,3.68-.53,2.8-.8,1.62-.65,3.05-1.36.47-.24,3.33-1.42,3.52-1.39.29.05,4.56,3.4,4.74,3.64,1.64,2.2-.56,1.85-.49,2.14.4,1.52,2.2,2.98,3.91,2.52.04.17.7.87.87,1.61,5.77,24.73.41,45.18-18.71,62.25-2.73,2.43-5.71,4.7-8.93,6.41-.58.3-1.13.31-1.63-.07-2.99,3.15-6.82.58-5.76-3.53-3.38-1.26-4.17-4.3-3.33-7.61-.78,1.17-1.82,1.27-3.07.59-2.54,2.67-5.85-.83-4.12-3.71-3.38-1.18-4.5-3.25-5.85-6.58-3.66,1.33-5.65,1.06-8.34-1.95-2.29-.93-3.3-.38-3.05,1.64-3.17,1.32-.95,1.61,1.45,1.44,1.55.19,1.97,1.44,1.27,3.73,1.39-1.02,8.47,4.92,8.76,5.55,1.34,2.89-1.24,12.29-4.7,4.51-2.49-.02-3.85-.33-5.74-1.92-2.4,2.25-8.26.1-10.47-2.23,3.4,6.77-3.6,5.82-4.44-.21-4.94-1.56-2.56-3.9,1.15-5.05.18-3.37-2.2-4.39-5.06-4.17,1.7,2.43.55,3.87-2.28,3.6-1.34,3.34-3.69,4.84-4.48.49,0-.03-.54-.33-.57-.32-.75,1.69-2.22,1.35-3.56.41-2.32,1.72-3.53-.47-3.97-2.63l-1.88.66c-2.91,2.43-4.58,2.63-5.02.63-1.08-.3-2.3-.77-3.35-1.67.75-.57,2.46-1.51,2.55-1.64.4-.55-1.42-2.13,1.32-3.06,1.17-.39,1.38,1.24,1.15-2.55-2.96.01-4.16,2.94-6.68,3.9-.24-1.29,1.52-1.6.88-2.8-.15-.29-4.54-3.45-5.23-3.84-.58-.33-2.24-.5-2.33-.62-.72-.96,1.71-2.99.57-3.63-1.06-.58-2.21.2-3.36-.82-3.35-5.12-2.14-5.9,3.13-7.4-1.59-4.14,1.39-5.42,4.66-6.37,3.82,2.02,5.64.18,6.08-3.55,2.86-.62,4.14-1.48,3.87-2.57-3.67-3.08-1.62-7.07,2.03-3.19.76-3.37,2.84-3.74,4.42-.79.41-1.92,1.35-2.98,2.8-3.16-2.2-1.83-3.27-8.13.61-7.23.64.15,1.11.29,1.28,1,.31,9.99,4.24-1.56,4.93-5.04.78-3.93.67-6.24-3.8-4.21-1.96,2.19-12.91.01-13.44-1.66-.36-1.15.16-1.83,1.03-2.52-.15-1.48.46-2.82,1.81-4.03-2.85-3.83-1.01-7.5,3.05-9.33,1.02-1.29.6-2.46-1.25-3.52-2.33-3.89-.32-2.23.03-2.51.58-.46.3-1.62.88-2.01.73-.49,2.33-.14,3-1.06-.69-2.99,3.08-.91,4.21,1.09.08-1.61.6-3.73,2.48-3.87.92-2.03,1.46-4.3,3.9-5.02Z"/>
          <path class="cls-30" d="M453.63,407.29c-.35,2.98.39,3.69,3.35,3.35.03,2.76-1.42,1.87-2.78,2.49-1.66.76-3.37,2.39-5.46.72-2.74-2.19,2.72-4.22,3.43-4.87.42-.38-.38-2.02,1.46-1.69Z"/>
          <path class="cls-12" d="M467.02,395.02c1.19,4.57.17,1.22-1.95,3.33-2.27-.97,1.36-3.89,1.95-3.33Z"/>
          <path class="cls-28" d="M404,478.67c1.32.97,2.76-.56,4.24-1.37.21-.12.23-.71.35-.76.52-.21.97.39,1.28.38.41,0,0-1.39,1.09-1.04,1.89,1.12.63,3.25,2.81,3.91.67-2.45,1.85.06,3.61-.01.36-.35-1.4-2.79,0-2.78.28,1.95,5.05,1.99,2.24,4.18,2.71,1.13,2.41-2.55,2.77-2.81.25-.18,2.7.09,3.36-.27l-1.67-3.06c.29-1.39,5.39.16,6.11.57,1.2.68,2.36,4.07,1.45,5.32-.56.77-4.01.4-3.66,2.75,4-1.1,2.91,4.53,4.76,5.03,3.28.89.25-2.81.22-3.04-.69-4.73,3.25.34,4.35.69.3.09,5.72,1.19,6.03,1.23.24.03.22-1.05.59-1.14,1.92-.44,2.36,1.28,3.41,1.59.98.29,2.13-.06,3.12.23,2.21.64,1.26,3.3,3.18,3.23.45-1.94-.32-4.04,1.12-5.57-2.11-.89-5.14-4.97-7.54-5.58-1.62-.41-.13,1.78-1.38,1.66-.42-2.34-1.32-2.77,0-5.01-1.1-.7-3.91.05-4.47-.27-.23-.13-.6-4.07-2.22-4.75,1.76-.29,2.53,1.19,3.63,2.22l-.28-3.34c.17-.16,4.08.45,4.63.68,1.04.43,4.02,4.86,5.68,1.55l1.39,1.11.28-1.67c3.43,2.12,1.54,6.16,6.4,7.04,1.87.34,4.2-2.26,3.92-4.25l2.47,1.69,1.43,3.32c-1.54-.98-7.16.4-7.29,1.96-.24,2.96,4.13,3.52,2.27-.28h2.23c-.61,4.63,1.84,1.07,2.51-1.11,2.02,1.41-.04,4.09.49,6.7.64,3.18,3.3,2.86,3.67,3.36.21.28-1.88,5.72,3.05,4.39,1.72-.47-1.28-2.97.6-2.74.19.02,2.22,2.4,2.51,2.78.22.29.54,1.46.92,2.1.34.58,1.33.72,1.34,1.02.09,2.63-5.2,1.77-1.71,5.8-4.28-2.05-3.64,4.64-8.36,4.47l1.67,1.66c-4.08-.89-3.01,3.54-3.35,3.91-.52.55-4.56-.32-5.58-.56-.51.03-.51.4,0,1.12.84.37,1.97.46,2.79,1.12-2.06-.08-5.71.15-7.81-.56l-.99.68c-3.35-1.29-6.54-2.85-9.58-4.68-3.17.29-4.8-1.55-5.12-4.32.38-.63.92-1.92.84-2.66-.11-1.08-4.41-8.44-4.87-2.61-1.86,1.46-2.03,2.39-.52,2.79-.56,2.2,1.02,4.45,3.42,4.49,1.55,1.92-.53,4.23-2.15,2.41-.37-1.41-2.01-.84-2.79-1.4-.58-.42-.49-1.63-1.45-2.45-.22-.19-4.82-2.65-5.1-2.72-3.06-.79-2.72,1.53-3.26,1.59-2.16.23-1.72-1.9-2.19-2.8-1.11-2.16-4.29-.48-6.41-.59-.6-.74-1.16-.92-1.67-.56-.87-.33-4.32-2.27-4.75-2.78-1.29-1.49,1.43-.95,1.95-1.97-2.44-1.65-4.72-3.41-6.97-5.31-2.35-1.98-4.85-4.39-6.94-6.95-1.03-1.26-2.08-2.73-2.8-4.19-2.52-1.03,4.71-4.27,5.32-3.67.29,1.83.56,3.8.82,5.9-.14.75-.81,1.91-.92,1.15s0-1.05.92-1.15l-.98-5.73,1.53.71Z"/>
          <path class="cls-1" d="M463.68,513.8v1.12c-2.05-.9-3.75-1.84-6.14-1.95,2.27-1.31,4.52.46,6.14.84Z"/>
          <path class="cls-1" d="M522.23,425.13h-3.34c-.32-1.08.47-1.01.55-1.12.43.77,1.67-.18,2.47,0,1.42.34.32,1.02.32,1.11Z"/>
          <path class="cls-28" d="M401.77,395.58c1.19.48,3.66.78,4.58,1.17.11.05,1.9,1.07,1.99,1.15.16.13-.53,1.24.39,1.58.55-.34,1.35-1,1.96-1.1,2.69-.45,3.51,1.52,2.54,3.66-.73,1.63-3.72,1.36-4.53,4.71-.57,2.35,1.52,3.83,1.37,4.66-.09.5-2.06,2.24-2.17,3.45-.01.16,2.08.34,1.12,1.36-.14.15-2.15-.13-2.23,1.12,5.51,1.8,10.48,3.86,15.05-1.11-.52,2.6,1.17,1.24,2.24,1.93,1.28.83.3,6.84-.33,8.07-1.76,3.47-.65,1.77-1.44,4.65-.17.6-3.01,4.34-3.81,3.75-.78-2.09-1.47-3.81-1.13-6.13-5.58,2.15,1.92,4.57,0,8.36l-1.66-1.11c-2.17,7.85-3.64,1.13-4.19,1.13-1.34,1.22-1.36,2.85-.84,4.45-1.47.64-3.03-4.16-4.46-2.78-.92.88,3.48,2.75,1.94,5.03-.43.63-2.12.39-1.39,2.78-4.16-3.6-1.98.51-2.29,1.02-.09.15-.92.29-1.27.69-.5.58-.88,1.64-1.46,1.95-1.5.78-4.54-.92-5.21-.79-.45.09-1,.92-1.56,1.26-.45.28-1.36.24-1.51.4-.74.81.7,3.5.22,4.41-.13.25-4.57,1.44-5.32,2.21-.49,2.01,1.82.74,2.23,1.11.64.58-2.17,1.97-1.12,3.34-.14-.13-2.43-2.6-2.51-2.78-.62-1.22-.12-3.72-1-4.87-.5-.66-2.11-.83-2.67-1.69-.37-.57-.6-4.39-.51-5.17,4.06.97,4.41.78,1.05-.55l-.49-1.12c.07-.17.86-.33,1.07-1,.53-1.7,1.62-7.27,1.2-8.73-.18-.63-.95-.17-1.29-.31-2.03-.86.91-1.16,1.23-1.38.87-.61,3.65-12.54,4.61-14.93,1-2.51,3.57-7.87,4.97-10.08,1.89-2.99,6.84-7.33,8.07-10.36.26-.64-.91-2.17-1.46-3.38Z"/>
          <path class="cls-32" d="M414.6,392.79c-2.71-.2-3.61-4.96-1.95-5.01,2.09-.05,1.49,6.76,3.91,1.11l.84,2.23c1.05-.24,1.56-.92,2.22-1.67-.82-.95.06-1.99,1.12-1.12-.07.52-.14,1.59.56,1.67-.43.95-.92,1.95-1.29,2.92-.24.63.59,2.41-1.7,2-1.05-.19-1.36-1.98-2.04-2.45-.94-.65-1.57.33-1.66.32Z"/>
          <path class="cls-13" d="M386.16,387.21c2.4-.31-.95,2.33-.89,3.63.03.62,1.46.96.07,1.98-1.09.8-2.43.08-3.64.52-.4-2.14,2.51-2.72,2.84-3.13.36-.45.26-1.5.5-1.88.09-.14.73-.6,1.12-1.12Z"/>
          <path class="cls-30" d="M419.62,389.44c-2.05-.99-.42-2.88,1.67-2.23.24.67-.55,1.05-.56,1.11-.66.15-.79.74-1.12,1.12Z"/>
          <path class="cls-15" d="M397.31,481.46c-.31.16-1.53-.16-1.67,0-.51.58,1,1.72,1.23,2.4.39,1.1,1.64,5.05,1.81,5.9.29,1.47-.31,3.1-1.94,2.02-1.11-.74.27-2.15.01-2.51-.11-.15-3.4-1.17-3.58-1.16-.53.04-.59,1.57-1.18,1.71-.24.06-3.1-1.45-4.6-1.53-1.2-.07-2.26.54-3.47.41l1.11-3.34-2.78.55c-.5-1.86,1.43-.84,1.67-1.12.15-.18-.48-1.19-.37-1.87.07-.46.73-.83.68-1.51-.18-2.44-2.3-2.45-2.54-2.76-1.03-1.35,1.23-.92,1.53-1.21.34-.33.11-1.34.67-1.85.13-.12,2.09.72,1.54-2.15-.12-.62-1.94-1.9.41-2.01,1.53-.07,2.08,1.16,2.82,2.21,1.54-3.39,1.68,1.25,2.09,1.56.28.21,1.09.03,1.34.28.64.63.99,1.99,1.88,2.38.83.37,1.78-.49,2.13-.26.26.17.34,1.46.94,1.62.76.2,2.86-1.66,3.6-2.23,2.21-.63,2.49,1.05,3.35,1.67-2.45-.21-.22,1.34.01,2.55.27,1.43-.34,1.66-.57,2.47-1.52-1.68-1.14-3.45-1.12-5.58-1.17.94-2.64,1.24-3.9,1.97-.59.34-.99,1.31-1.11,1.37Z"/>
          <path class="cls-20" d="M439.7,511.57c.98-.52,2.03-.26,1.68-1.67-2.38.56-2.32-1.03-3.4-1.9-.8-.64-2.53-.44-2.17-2.01l2.22-.27c-3.92-2.42-1.67-2.18,0-4.47.59-.81,1.12-3.33,2.46-3.05,1.53.33,3.96,5.97,5.34,6.95-2.74.71-.2,2.73-2.22,2.51-.17.86.93.5,1.37,1.14.37.55.21,1.52.32,1.64.09.1,1.55-.47,2.64-.2,1.6.39,3.58,2.06,5.15,2.71,1.44.6,4.84,2.26,5.58,2.51.02,1.32.38,1.93-1.12,1.67-1.89-.59-3.21-.28-4.62-.67-1.14-.32-2.48-2.53-4.04-2.66-.36-.03-2.94.45-3.05.55-.1.1,1.21,2.25.28,2.79-1.57.18-3.54-3.53-4.42-3.33-1.33.3-2.36,2.25.25,2.77-1.5,2.39-5.84,1.2-6.13-1.67,1.25-2.87,1.53-2.1,3.9-3.35Z"/>
          <path class="cls-11" d="M381.5,468.28c2.2,2.07,2.2,3.49.47,5.93-1.67.58-.08-3.68-1.68-3.91-.7-.1-1.23,1.09-1.93.86-.47-.16-3.33-2.53-3.34-2.8-.06-1.25,3.96,0,4.72-1.19.62.27,1.27.65,1.76,1.11Z"/>
          <path class="cls-13" d="M366.44,453.43c-.1.16-1.3-.04-.91.97.42,1.09,1.62.21,1.66.29.89,1.71-.91,3.06-2.6,3.17-1.88.13-2.73-1.52-1.3-2.37.67-.4,1.56.46,1.67.32.44-.56-.77-3.13-.56-3.34.26-.25,3.31-1.22,2.03.97Z"/>
          <path class="cls-15" d="M383.37,445.77c1.4-.41,6.63,3.43,5.57,4.46-2.1-.99-4.91-.65-6.13-2.79.07-.66.32-1.1.56-1.67Z"/>
          <path class="cls-1" d="M425.8,518.21c-.08-.06.08-1.05-.4-1.11-.45-.06-2.27,1.08-2.44-.24-.05-.37,1.16-2.43,1.51-2.52,5.01-1.24,2.93,5.08,1.33,3.87Z"/>
          <path class="cls-11" d="M432.26,512.22c2.02-.55,2.56,2.15.96,2.65-2.63.82-3.21-2.04-.96-2.65Z"/>
          <path class="cls-15" d="M390.06,463.61c-.29,1.85.59,4.86-2.25,3.08-1.66-1.04,1.78-3.61,2.25-3.08Z"/>
          <path class="cls-1" d="M431.33,517.15c1.48,1.68-2.81,2.9-3.9,2.23-.58-1.61,3.74-2.4,3.9-2.23Z"/>
          <path class="cls-29" d="M373.89,465.28c.55,7.2-2.66.96-1.67,0,.12-.11,1.22.06,1.67,0Z"/>
          <path class="cls-33" d="M398.42,470.31c.83,1.17-3.16,3.5-2.23-.56.11-.12,2.16.47,2.23.56Z"/>
          <path class="cls-15" d="M418.5,503.21c-.62-.03-1.12-.35-1.67-.56-.39-1.5,1.15-1.04,2.23-1.67l-.55,2.23Z"/>
          <path class="cls-9" d="M456.43,533.88c-1.97-.79,1.08-3.74,2.79-.83-.43.51-2.32,1.02-2.79.83Z"/>
          <path class="cls-16" d="M458.04,446.93c.53.62-.26,2.57-1.05,3.03l1.1.26c.79,2.17-5.3,3.01-5.54,2.77-.1-.1-.02-1.1-.34-1.59-.52-.79-1.37-1.26-1.8-2.13-.69-1.4-.92-3.62-1.79-5.18,3.35,1.5,2.67,2.92,4.74-1.11.92.96,1.44,2.23,2.47,3.1.8.68,2.13.75,2.21.84Z"/>
          <path class="cls-23" d="M427.43,402.27c-1.36,1.5.47,2.72.47,3.07,0,1.04-4.63.9-1.59,4.17-2.52-.43-5.63.84-5.02-2.78-.13-.19-2.77,2.19-4.19,2.04-1.17-.13-2.96-2.92-1.09-3.7,1.05-.44.78.97.87,1.04,1.19.88.97-1.08,2-1.5,2.25-.92,4.39-1.13,6.62-1.48.72-.11.96-1.15,1.94-.85Z"/>
          <path class="cls-16" d="M412.82,408.85c-1.27.76-3.78-.52-2.84-2.51,1.59-3.34,5.43.95,2.84,2.51Z"/>
          <path class="cls-24" d="M423.52,493.16l1.67-.56c.37.36.36,3.82.6,4.61.08.27,4.1,4.71,1.92,4.86-.4.03-2.47-1.16-3.31-1.11-.33.02-.26.99-.7,1.12-2.85.81-2.09-.68-2.75-1.57-.51-.69-2.31-2.75-2.38-3.26-.12-.84.85-1.17,1.04-1.58.08-.17-2.1-.68-1.11-3.06l3.34.56c-.25-2.67-.27-2.73,2.23-3.35l-.55,3.34Z"/>
          <path class="cls-20" d="M455.31,507.11c.43.47-2.14,3.98,2.23,3.35l-1.44,1.69c-1.14-1.19-7.84-2.38-8.03-3.1-.37-1.36,1.48-2.75,2.64-2.97.63-.12,4.45.86,4.61,1.04Z"/>
          <path class="cls-34" d="M450.29,497.07c-3.14-.52-5.4-1.3-4.21-5.04.66-2.08,2.53-1.65,3.01-.16.51,1.61-.57,3.65,1.2,5.21Z"/>
          <path class="cls-8" d="M417.39,482.57l.25,2.25c-2.84,1-8.05-.22-4.99-3.92l.28,2.23c1.71-2.21,1.32-1.55,3.9-1.12.6-.23.84-.03.56.56Z"/>
          <path class="cls-20" d="M421.29,488.16c.05.93-1.11.44-1.94,1.12-.39.32-.64,1.54-1.13,1.67-.58.15-2.43-1.66-2.5-1.96-.39-1.74,2.01-.94,2.13-1,.13-.07.1-.93.41-.98,1.13-.16,1.98,1.05,3.04,1.15Z"/>
          <path class="cls-24" d="M416.83,482.02c.11.02.52-.53,1.12-.27.64.28,1.29,1.49,1.95,1.94l.83-1.11c-.12.92.78,3.49-1.39,2.8-.19-.06-.43-1.73-1.95-2.8-.21-.15-.38-.37-.56-.56Z"/>
          <path class="cls-24" d="M411.25,483.69c.9.97-2.83,2.12-3.34,2.22-.25-1.9,2.04-3.63,3.34-2.22Z"/>
          <path class="cls-20" d="M412.94,493.72c-.21-.15-1.45-3.23-1.12-3.9.51.38,2.77,2.86,2.77,3.07,0,.3-1.19,1.15-1.65.83Z"/>
          <path class="cls-15" d="M403.45,483.69c-.21.73.18,1.65-.84,2.22l-1.39-2.21h2.23Z"/>
          <path class="cls-12" d="M404.76,420.47c.14.24.92.2.93.48.03,1.38-3.02,3.42-4.47,3.06-.49-2.72.95-3.78,3.07-5.01.44-.09.15.91.47,1.47Z"/>
          <path class="cls-10" d="M403.45,399.48c.15-.17,4.05,2.97,1.94,3.34-1.22.22-1.95-2.42-1.94-3.34Z"/>
        </g>
      </g>
    </g>
  </g>
</svg>