<?xml version="1.0" encoding="UTF-8"?>
<svg id="Skier" xmlns="http://www.w3.org/2000/svg" version="1.1" viewBox="0 0 900 900">
  <!-- Generator: Adobe Illustrator 29.7.1, SVG Export Plug-In . SVG Version: 2.1.1 Build 8)  -->
  <defs>
    <style>
      .st0 {
        fill: #f2bea4;
      }

      .st1 {
        fill: #f3c674;
      }

      .st2 {
        fill: #eeb765;
      }

      .st3 {
        fill: #d04c50;
      }

      .st4 {
        fill: #dd6c7a;
      }

      .st5 {
        fill: #405063;
      }

      .st6 {
        fill: #b7463d;
      }

      .st7 {
        fill: #ae393e;
      }

      .st8 {
        fill: #d74f5a;
      }

      .st9 {
        fill: #713834;
      }

      .st10 {
        fill: #505968;
      }
    </style>
  </defs>
  <g>
    <path d="M192.49,495.96c-.66,0-1.32-.03-1.99-.1-11.23-1.09-19.44-11.07-18.35-22.29l10.01-103.11c1.08-11.22,10.99-19.51,22.29-18.35,11.23,1.09,19.44,11.07,18.35,22.29l-10.01,103.11c-1.02,10.55-9.91,18.45-20.3,18.45Z"/>
    <path d="M192.47,480.65c-.16,0-.32,0-.48-.02-2.81-.27-4.87-2.76-4.61-5.56L227,56.47c.28-2.81,2.75-4.87,5.56-4.61,2.81.27,4.87,2.76,4.61,5.56l-39.62,418.6c-.26,2.64-2.47,4.63-5.08,4.63Z"/>
  </g>
  <g>
    <path d="M531.24,378.56c-1.97,0-4.01-.3-6-.91-10.77-3.32-16.83-14.75-13.52-25.52l26.74-86.98c3.33-10.75,14.74-16.77,25.52-13.52,10.77,3.32,16.83,14.75,13.52,25.52l-26.74,86.98c-2.71,8.77-10.79,14.43-19.52,14.43Z"/>
    <path d="M531.24,363.24c-.5,0-1-.07-1.5-.22-2.69-.83-4.21-3.69-3.39-6.38L634.57,3.6c.84-2.69,3.67-4.17,6.38-3.39,2.69.83,4.21,3.69,3.39,6.38l-108.22,353.04c-.68,2.19-2.69,3.61-4.89,3.61Z"/>
  </g>
  <ellipse class="st9" cx="192.48" cy="442.27" rx="18.38" ry="21.64"/>
  <path class="st7" d="M202.28,442.27s18.17-20.21,9.6-110.88c-8.58-90.66-51.66-65.75-51.66-65.75,0,0-30.63-3.47-13.27,33.28,17.36,36.76,22.46,45.74,25.12,94.34,2.65,48.8,30.22,49.21,30.22,49.21v-.2Z"/>
  <path class="st4" d="M257.61,169.06s-18.99-33.49-68.81-17.97c-49.82,15.52-41.25,129.87-41.25,129.87l86.37,17.97,23.69-129.87h0Z"/>
  <path class="st0" d="M68.33,224.8s38.59,59.62,102.1,54.93c63.5-4.7-31.04-95.56-31.04-95.56,0,0-64.32-4.08-71.26,40.63h.2Z"/>
  <circle class="st3" cx="119.99" cy="102.49" r="21.64"/>
  <path class="st1" d="M168.38,157.62s-16.54-32.47-48.39-44.11c-31.85-11.64-69.02,51.05-54.52,98.01l102.71-53.91h.2Z"/>
  <path d="M111.82,217.65s28.79-24.71,40.02-8.58-6.13,30.42-27.57,30.83c-21.44.41-17.15,14.09-28.18,14.5-11.03.41-26.34-3.68-14.5-22.46,11.84-18.79,30.42-14.5,30.42-14.5l-.2.2Z"/>
  <path class="st6" d="M838.75,387.13l-294.24,488.23s-31.24,22.26-75.76,17.76c-44.51-4.49,60.24-37.98,60.24-37.98,0,0,294.24-526.21,309.97-468.22l-.2.2Z"/>
  <path class="st6" d="M645.17,492.7l-265.66,394.5s-26.95,17.36-63.91,11.64c-36.96-5.72,51.66-29,51.66-29,0,0,267.29-425.95,277.91-376.94v-.2Z"/>
  <path class="st10" d="M459.15,280.14s31.24-.82,46.15,102.51c14.91,103.32,0,163.15,0,163.15,0,0-24.91,31.04-58.4-63.71l-18.58-42.88-25.52,49.62-6.53,69.02,45.33,46.76-84.13-2.65s-71.26-35.53,0-211.95c0,0,118.23-17.36,101.89-110.06"/>
  <path class="st5" d="M704.8,575.2s-94.75-65.55-159.88-71.26c-65.14-5.72,23.28-97.6-85.97-224,0,0,49.01,74.73,47.58,199.09s-59.83,2.86-59.83,2.86c0,0-11.23,66.57,92.3,93.32,103.53,26.75,90.66,8.17,128.85,40.43,38.18,32.26,36.75-40.43,36.75-40.43h.2Z"/>
  <path class="st5" d="M428.11,439.2s-17.76,97.6-23.69,106.59c-5.92,8.98,76.98,31.04,110.88,68,34.1,36.96-29.61,36.96-29.61,36.96,0,0-97.61-48.8-128.64-48.8,0,0,104.96-10.41,19.19-41.45,0,0,16.34-26.54,13.27-65.14-2.86-38.39,16.34-50.23,23.69-82.9,7.35-32.47,14.7,26.54,14.7,26.54l.2.21Z"/>
  <path class="st2" d="M692.75,572.54c-17.56,24.3-36.96,47.58-40.84,78.41-.41,3.06,1.63,6.13,3.88,7.76,2.65,2.04,5.31,2.25,8.78,1.84,9.39-1.23,13.89-10.41,17.15-18.38,1.02-2.45.41-1.43,1.63-3.68.82-1.63,1.63-3.06,2.45-4.49,2.04-3.27,4.29-6.53,6.53-9.6,9.39-12.86,19.19-25.52,19.4-42.06,0-5.31-4.7-10.01-10.01-10.01s-9.8,4.49-10.01,10.01v2.65c0,1.63.61-2.04,0,.82-.41,1.43-.61,2.86-1.23,4.29-.2.82-.61,1.63-.82,2.25.41-1.02,0,0,0,.41-.82,1.43-1.43,3.06-2.45,4.49-3.27,5.72-7.35,11.03-11.43,16.34s-7.56,10.62-10.41,16.54c-1.02,2.04-1.84,4.08-2.65,6.13,0,.2-1.02,2.25-.2.82-.2.61-.61,1.23-.82,1.84-.41.82-.82,1.43-1.23,2.04-.82,1.43,1.02-1.84-.41.61-.61,1.02-.82,0,0,0,2.25-.41-.61,0-.82,0l12.66,9.6c1.43-11.84,7.35-23.89,14.09-34.71,7.35-11.64,15.93-22.67,24.09-33.69,3.06-4.29.82-11.03-3.68-13.68-5.1-2.86-10.41-.82-13.68,3.68h0v-.2Z"/>
  <path class="st2" d="M517.35,627.47c-6.13,8.58-12.86,16.95-18.38,26.14-6.13,10.01-10.21,20.62-11.64,32.47-.41,3.06,1.63,6.13,3.88,7.76,2.65,2.04,5.31,2.25,8.78,1.84,7.96-1.02,11.64-8.78,14.29-15.31.2-.61.41-1.02.61-1.63-1.02,2.25,0,0,.2-.41.61-1.23,1.23-2.25,1.84-3.27,1.43-2.45,3.06-4.7,4.7-6.94,7.15-9.8,14.29-19.4,14.5-32.06,0-5.31-4.7-10.21-10.01-10.01s-9.8,4.29-10.01,10.01v1.84c0,1.23.61-2.45,0,0-.2,1.02-.41,2.04-.82,3.06,0,.2-.61,1.63-.61,1.63,0-.2.82-1.84,0-.41-.61,1.02-1.02,2.25-1.63,3.27-2.45,4.08-5.51,7.96-8.37,11.84-2.86,3.88-5.51,7.76-7.56,12.05-.82,1.63-1.43,3.27-2.04,5.1,0,.2,0,.41-.2.61-.2.61,0,.41.41-.82-.2,0-.41,1.02-.61,1.23-.2.41-.61,1.02-.82,1.43q-.2.41.2,0,.61-.61,0,0l-.41.41,1.02-.82c1.84-1.02,1.23-.41,0-.2l12.66,9.6c-.2,2.04,0-1.02.41-1.63.2-1.23.61-2.45.82-3.68.61-2.45,1.43-4.7,2.45-6.94q-.41.82,0,0c.2-.61.41-1.02.82-1.63.61-1.23,1.23-2.25,1.84-3.47,1.23-2.25,2.45-4.29,3.68-6.33,5.31-8.58,11.64-16.34,17.56-24.5,3.06-4.29.82-11.23-3.68-13.68-5.1-2.65-10.41-1.02-13.68,3.68h0l-.21-.2Z"/>
  <path class="st7" d="M357.06,389.99s-41.25-49.21-150.49-59.22l98.22-98.83,122.11,60.85-26.54,89.64-43.29,7.56h0Z"/>
  <path class="st8" d="M215.96,288.51s-16.13-111.29,41.66-119.45c57.58-7.96,201.33,111.08,201.33,111.08,0,0,31.24,135.18-101.89,110.06,0,0,31.85-17.15,6.53-29.2-25.52-12.05,17.36-21.44,17.36-21.44l-23.89-9.39,17.15-12.05-1.43-20.21,9.39-16.95-32.26,14.29-12.05,20.21-18.79,2.65,6.13-28.18-18.79,17.36-8.78-26.34s-13.48,38.39-51.05,46.35c-37.57,7.96-64.32,10.41-99.24-46.35,0,0,29.61,2.25,68.4,7.56h.2Z"/>
  <path class="st4" d="M268.23,163.75s-13.48,64.32,20.21,77.8c33.69,13.48,48.19,9.39,64.32,0,16.13-9.39,54.93-21.44,66.98-9.39,12.05,12.05,88.62,65.75,100.67,87.19l33.49-28.18s-96.58-111.29-134.16-120.68c-37.57-9.39-119.25-13.48-151.51-6.74h0Z"/>
  <path class="st9" d="M188.8,248.69s-32.87-53.29-50.23-59.62,46.56-14.91,46.56-14.91c0,0,13.68,49.21,3.68,74.73v-.2Z"/>
  <path class="st3" d="M68.33,232.15s95.15-37.16,116.6-57.17c0,0-8.37-27.57-23.48-24.91,0,0-68.4,46.35-95.97,53.5,0,0-11.64,1.63,2.86,28.59Z"/>
  <circle class="st9" cx="544.51" cy="311.17" r="24.5"/>
  <path d="M237.39,72.26h-12.44c-2.81,0-5.1-2.28-5.1-5.1s2.29-5.1,5.1-5.1h12.44c2.81,0,5.1,2.28,5.1,5.1s-2.29,5.1-5.1,5.1Z"/>
  <path d="M642.31,18.77c-.5,0-1.02-.08-1.54-.24l-11.65-3.68c-2.69-.85-4.19-3.72-3.33-6.4.84-2.68,3.61-4.17,6.4-3.33l11.65,3.68c2.69.85,4.19,3.72,3.33,6.4-.68,2.18-2.69,3.57-4.87,3.57Z"/>
</svg>