<?xml version="1.0" encoding="UTF-8"?>
<svg id="Sun" xmlns="http://www.w3.org/2000/svg" viewBox="0 0 900 900">
  <defs>
    <style>
      .cls-1 {
        opacity: .15;
      }

      .cls-2 {
        fill: #efecc1;
      }
    </style>
  </defs>
  <g class="cls-1">
    <path class="cls-2" d="M770.47,433.05c-20.79,109.28-73.2,207.84-130.66,268.37-58.53,61.59-122.1,85.16-189.81,69.05-67.71-16.11-131.28-64.28-189.81-118.68-57.46-55.46-109.87-117.14-130.66-184.84-20.79-67.71-1.46-133.18,57.06-194.77,57.46-60.53,154.12-117.18,263.41-142.65,109.28-25.47,205.94-10.38,263.41,45.08,58.53,54.39,77.85,149.16,57.06,258.44Z"/>
  </g>
  <g class="cls-1">
    <path class="cls-2" d="M875.66,486.18c30.01,158.36,6.25,293.21-71.54,362.64-76.26,71.53-206.56,77.64-354.12,26.83-147.55-50.81-277.85-139.98-354.11-222.51C18.09,568.53-5.67,490.54,24.34,413.82c30.01-76.72,101.54-146.61,177.8-218.13C279.94,126.25,362.47,55.17,450,24.34c87.53-30.83,170.06-6.62,247.86,78,76.26,82.53,147.79,225.48,177.8,383.84Z"/>
  </g>
  <g class="cls-1">
    <path class="cls-2" d="M683.11,450c0,47.28-26.09,91.95-68.28,134.57-42.18,41.75-100.46,81.44-164.83,98.53-64.37,17.09-122.65,4.61-164.83-38.02-42.18-41.75-68.28-113.63-68.28-195.09,0-81.47,26.09-153.34,68.28-195.09,42.18-42.62,100.46-55.11,164.83-38.02,64.37,17.09,122.65,56.79,164.83,98.53,42.18,42.62,68.28,87.3,68.28,134.57Z"/>
  </g>
  <circle class="cls-2" cx="450" cy="450" r="168.18"/>
</svg>